<?xml version="1.0"?>
<svg xmlns="http://www.w3.org/2000/svg" version="1.2" baseProfile="tiny" width="800" height="674" viewBox="0 0 800 674" stroke-linecap="round" stroke-linejoin="round">
  <g id="guadeloupe">
    <path d="M 1 239.2722 1.8876 238.5292 4.8224 237.1738 5.8405 237.2995 7.7857 234.1495 7.5569 231.5092 6.3568 230.5984 7.2235 229.4394 7.2228 227.6351 8.744 226.5403 8.935 225.4442 8.079 224.2716 8.2315 223.1797 7.4197 218.036 8.7407 216.3963 8.3216 211.4564 10.0874 208.8089 11.5314 208.7933 12.1586 208.176 14.7635 208.0208 15.7215 206.5248 15.7624 204.1972 14.2887 203.1759 12.1256 202.8189 10.294 201.7784 9.5459 200.6057 8.4871 200.4388 10.016 196.3046 13.4623 194.7261 17.4001 193.6622 21.1959 191.1712 23.281 188.1328 23.5728 187.082 23.1456 184.5039 23.3822 183.3446 21.5445 181.196 21.2564 180.2431 22.8433 177.5968 26.4847 174.6733 31.0126 172.4 32.7198 170.5159 31.8545 168.1109 34.3853 164.8823 34.602 163.4287 38.2434 163.5037 40.1133 162.0172 42.9766 161.4334 44.24 159.422 45.9012 159.0559 47.5925 159.1593 50.4393 157.7046 52.8192 158.6553 56.5315 159.2339 59.0967 159.0345 61.7383 157.8805 61.5343 156.9886 63.1013 156.175 63.8373 154.8947 63.7295 152.585 64.6663 152.53 65.7977 151.2874 67.5642 152.568 69.6231 153.196 70.6191 152.9813 72.2195 155.0942 75.0265 156.3958 77.4682 157.1129 79.1145 156.0429 80.3284 156.028 81.4655 158.1776 82.9047 159.2233 84.7933 159.2639 84.6667 160.6011 86.8749 162.0295 88.1959 162.5289 87.2172 164.7802 87.8682 165.7757 89.7471 165.5369 90.2552 166.5923 93.4031 168.4439 92.2589 169.519 92.1299 170.5024 93.6425 172.1486 93.2036 173.1732 95.0114 174.42 95.4867 175.5464 98.3944 175.9163 99.945 176.6614 101.5071 176.7923 102.654 176.2206 106.2097 176.6244 106.9861 177.6371 109.8028 177.4068 111.5776 178.541 113.6119 177.5917 115.4939 178.0098 116.9696 179.4086 116.8848 180.3425 118.2394 181.3178 120.1008 181.52 120.4814 182.4954 122.682 183.023 123.1898 185.9885 122.6396 186.7193 123.9085 187.9786 125.2099 187.6189 126.7016 188.0191 127.9704 185.7854 127.5899 184.8918 128.4998 184.0016 130.7356 184.0349 131.6094 186.232 133.6532 186.2417 134.2754 187.0851 135.7562 187.4096 136.3911 188.4658 136.8979 190.9836 139.5639 189.5625 140.1564 191.0655 139.9869 192.0802 142.3984 191.5122 144.2184 192.0398 142.7799 192.9748 143.2029 194.5586 145.6569 193.6247 145.6569 192.243 148.5761 191.7963 148.9991 192.9333 153.2307 192.7301 154.6692 191.7558 157.2078 191.1059 160.0847 193.6651 160.6773 193.3801 162.7507 194.2746 164.1468 194.2746 166.3463 195.1681 167.3618 196.8733 165.1198 199.1484 163.8086 199.5547 163.4271 200.4886 164.8963 203.5265 167.9945 203.611 170.1974 202.8851 172.9036 204.4836 173.9652 204.6166 174.9342 207.3584 176.3816 207.6144 179.8019 207.6906 180.5766 208.0289 181.4352 210.128 183.0866 211.0331 187.2411 210.6953 192.495 209.1975 195.5296 208.7977 199.1416 207.7671 202.6792 207.7483 205.2362 208.342 206.6221 210.0657 205.7537 212.2674 204.2135 213.9144 202.3102 214.54 201.73 215.4927 199.0108 216.7778 197.107 218.4435 196.5145 222.3844 195.076 227.1369 192.7068 229.2493 189.9561 229.8993 188.7296 229.7375 186.8258 228.6399 189.5332 227.2592 190.9292 224.6586 191.6065 224.1309 190.2105 222.912 189.406 220.9623 188.0099 220.0688 187.2488 221.0027 189.1102 223.3992 189.195 224.4968 187.4173 227.2997 183.8632 229.0462 181.8322 229.8184 181.3254 231.7277 182.7215 235.7495 183.6945 236.3994 186.1061 235.5058 190.0833 234.4901 191.8599 233.7189 194.6106 233.3125 196.1763 232.5404 196.3449 236.1558 195.8371 238.0246 192.9602 241.6006 192.7917 242.4123 194.5259 244.2406 195.9211 244.4977 198.0161 243.3273 199.7997 243.7287 201.8688 242.1467 202.9351 240.197 205.3066 239.0627 206.2017 236.4302 207.8041 233.4566 208.4159 231.1142 209.4284 231.1692 208.6664 234.2539 210.438 236.5376 210.0458 238.6943 207.0634 240.837 207.0542 242.6235 208.1448 244.3555 209.9035 245.7398 213.0199 245.7368 214.2002 245.2662 217.3259 244.9253 218.5091 243.3145 222.935 242.1288 223.7217 240.9785 224.2209 238.895 223.8836 237.8035 226.7289 234.6304 228.2207 233.4602 228.5276 230.5988 227.7413 229.7807 226.5106 229.5338 227.4933 228.2796 229.5092 228.2496 231.1673 227.0066 232.88 229.3407 234.1301 230.2737 235.2724 229.7207 236.4218 230.1982 237.5943 228.1961 242.6812 225.3166 243.6949 225.4684 244.9558 227.2151 245.3878 228.7317 247.1421 228.0105 247.3538 225.9694 248.1364 225.5444 249.8509 226.1562 251.1058 224.3501 252.4547 224.1471 254.1747 222.7465 255.3802 222.8845 256.2224 223.9105 258.4739 219.3324 260.598 218.5262 259.5144 212.3655 259.9472 209.0254 261.1401 207.8647 265.2968 206.2236 268.1529 202.9464 270.703 199.4832 271.9399 199.8364 271.7964 198.166 272.2904 195.851 271.309 195.4393 271.114 193.5487 272.1669 191.9577 272.9663 189.8737 272.4269 188.1891 272.5829 187.0412 273.4278 186.7292 271.9654 184.3209 272.1734 182.7424 271.2764 181.6505 272.4074 179.0426 274.2077 177.7325 275.1306 177.9072 277.0155 175.0374 277.8864 173.2967 282.144 170.7599 283.625 170.8415 286.8406 169.8277 287.7323 171.6492 288.5473 169.9619 294.9343 169.9184 297.7052 170.7408 298.277 172.6928 299.7634 171.8169 301.743 171.8309 303.0911 170.1487 304.4519 169.532 307.5674 170.4923 309.7075 170.2023 309.4064 169.1385 307.4747 168.7759 306.4342 166.8577 307.6966 165.4548 309.9561 166.7832 312.7115 166.6994 312.6709 164.5268 313.2847 163.8585 315.4073 162.9701 317.1033 163.7943 317.4191 165.2509 319.2564 164.8302 322.3702 166.3772 324.1828 168.285 325.9401 168.4437 328.4073 170.0817 330.0739 168.8371 330.0933 167.7439 331.8486 167.99 330.3049 165.9633 327.6929 165.6366 325.6201 164.8705 323.4758 164.6468 322.9583 165.3092 321.7058 164.5227 321.3386 163.5076 319.4326 163.5483 318.6239 162.7636 318.1902 161.0978 319.141 159.7838 315.1937 159.7087 312.6414 158.8331 309.8532 158.6148 308.5403 157.9535 307.1365 157.9285 306.506 156.5562 308.8457 155.8825 309.1318 154.4165 310.1457 151.9337 308.5403 150.9668 307.3705 150.9045 305.2486 149.1732 305.1901 148.2437 307.4779 147.7385 309.3303 146.1167 310.3182 143.5155 310.2401 142.1681 309.2522 141.4944 310.5392 140.3094 309.9146 138.2001 311.1902 136.7035 309.8939 135.0877 307.9734 131.8862 307.7329 130.7808 305.2297 129.041 303.1079 127.9932 302.4099 126.6818 299.653 124.7933 297.9472 128.4971 296.8756 126.9918 295.4255 125.9758 294.5021 124.1698 292.4241 124.1989 289.587 122.5022 288.4309 122.4496 286.8391 121.2288 284.498 120.6944 281.0195 118.7271 280.1955 117.31 280.1184 116.2546 279.0497 114.2101 277.9029 113.0938 278.0575 109.664 277.2191 106.4525 277.1516 104.5189 276.0865 103.5008 275.3722 101.4507 274.4457 101.2953 274.1015 99.6854 273.3551 99.1696 273.4591 96.0633 272.896 95.4814 272.4647 93.2492 273.5424 90.6541 273.0834 88.8513 271.8943 86.8311 270.31 84.9617 269.643 83.2921 269.7919 78.8131 269.3021 77.0523 268.5593 76.5025 266.3475 76.9602 265.7626 75.6884 269.2814 70.4888 269.6396 68.6076 270.3177 67.639 271.1884 64.2038 271.3713 60.2891 273.8974 57.5467 275.8541 56.0853 276.7508 54.7786 278.2526 53.4261 281.03 53.0722 283.3353 51.6558 284.8368 49.6795 284.9549 48.1494 286.2421 46.3548 288.6584 44.0599 290.6241 43.03 292.9811 42.6221 293.9921 43.0349 297.5598 41.5094 298.5779 41.3159 299.4881 38.6805 300.7924 36.3396 301.3068 34.1275 302.1707 32.5955 302.4762 30.9278 305.9483 30.8117 310.9156 28.4181 311.8624 27.7152 313.358 25.8084 314.6482 25.2573 318.327 24.8508 321.0967 22.4671 321.3941 20.8478 323.3803 19.0307 324.3728 19.2849 325.0824 18.1368 326.7452 17.0962 326.0125 15.7399 327.4865 13.8162 328.2918 10.3311 329.5526 10.5124 330.9287 9.2754 331.235 6.846 332.3399 6.0629 332.9379 4.7029 334.3619 5.3244 337.2694 4.6614 339.0987 4.8792 341.1488 1.0003 341.8232 2.1154 340.6845 5.6764 339.6361 7.2295 339.0191 9.1388 340.9161 8.3804 342.1595 10.4392 341.8341 13.2198 342.4042 14.2544 344.0559 15.7599 346.5717 14.9297 348.6132 16.5074 350.0099 15.4138 351.2259 15.3038 353.0541 17.4922 357.0319 16.0533 358.6623 14.8486 359.6106 14.8801 360.9254 15.785 362.1935 15.132 361.8642 18.4144 362.8972 20.9774 362.5176 22.6761 362.9548 23.3024 362.7493 24.8534 363.6356 25.8079 364.5348 24.8716 366.1889 24.3915 366.6878 26.0741 368.297 26.9888 368.9559 26.7868 371.4765 27.8725 371.0805 29.314 372.4547 29.9083 371.8641 30.8516 373.3892 31.4645 374.3043 32.3457 375.9926 32.5379 377.3533 34.1359 377.0198 36.1774 377.9596 36.0279 379.4187 37.5099 381.1379 38.7135 381.9207 38.4657 382.7476 39.6928 383.5818 39.9233 384.4919 38.588 385.8994 40.1369 387.3717 43.4314 388.9463 42.9816 390.351 43.3563 391.0908 45.175 393.0252 44.8888 394.6659 47.021 395.3028 49.1832 393.9583 52.7886 394.2036 54.1211 396.4811 54.2119 395.8554 56.5453 397.5647 59.2567 397.7129 61.048 397.1674 62.2015 398.8992 63.0928 398.9511 64.206 397.5959 66.5705 398.4245 68.0605 399.5857 68.5103 401.8598 68.6082 401.9938 71.3509 403.1562 71.7437 403.9097 72.9506 403.5532 73.6893 404.3914 76.4456 404.6824 79.9392 404.118 80.6696 406.2969 83.7762 406.5162 85.5194 405.5406 87.1689 405.5985 88.9341 406.5295 90.6296 406.0423 94.3114 406.4198 95.6229 404.8021 95.7615 404.3939 97.3823 402.4327 98.2824 402.839 99.3076 404.0904 100.0751 404.4587 101.9631 403.511 103.442 403.341 105.1424 402.2158 106.2897 400.7068 106.2178 399.3755 106.7491 399.5873 108.8217 400.4853 110.4546 400.5554 114.5558 400.9666 116.2253 399.4366 118.2046 399.5714 120.0517 400.6151 121.7018 399.5563 123.5093 399.0332 126.4278 399.1839 128.8399 401.478 131.1133 402.77 137.473 403.4483 139.2035 406.3207 143.5296 406.8398 145.1935 408.6795 146.4116 408.8205 147.5278 410.9669 148.5285 411.5741 149.7815 412.0882 153.234 413.9913 154.0761 415.441 156.8802 416.6343 158.051 416.9927 159.0912 418.4052 160.2747 418.9729 162.0763 420.8479 163.1282 421.3848 164.0748 422.659 164.6033 424.0572 167.9712 427.9547 171.1132 429.8482 172.2197 433.1222 173.2269 434.7222 173.2392 436.8509 174.282 436.1344 175.4526 436.071 176.6748 437.0673 177.7273 437.8509 177.2474 437.7774 175.7217 439.4144 175.3323 441.5804 175.9687 442.5072 176.8643 446.7778 177.3748 451.072 179.3792 452.8092 179.2423 456.0984 177.0102 458.4624 177.3601 458.7404 178.8491 459.5059 180.2136 460.9694 180.3317 461.0588 182.1895 461.6564 183.9227 463.4728 182.7736 463.3053 180.7471 463.6998 179.8801 465.3094 179.3759 470.0282 179.0511 474.4851 179.7556 476.0189 179.7765 480.1432 180.7999 481.7872 182.0696 483.6416 182.4555 485.6244 182.3457 486.9854 182.7509 488.8278 182.4237 490.83 181.0867 493.0779 182.0958 494.2257 183.5594 496.1678 184.8797 498.4425 187.3878 501.4859 187.2767 503.4833 185.2518 506.0334 185.0876 506.4076 187.1433 505.5913 188.9111 506.5479 189.9616 508.3032 189.625 509.5806 190.7785 511.633 190.9564 512.7367 191.748 514.03 191.9513 516.1944 190.8213 517.5744 191.7242 519.0605 193.2972 520.8258 193.499 521.0209 195.7749 524.2309 195.1353 525.0226 196.0525 526.379 196.168 527.6659 197.9612 527.7359 199.6096 529.3194 199.6759 530.696 199.2254 531.1309 200.6348 533.9367 201.4259 535.0574 202.5493 536.7515 203.0915 537.0313 203.6725 535.9122 206.0369 536.664 207.1146 539.7623 206.5097 542.9934 208.0324 544.5793 209.7294 544.4452 210.3409 545.8174 211.9328 546.692 214.0429 546.3324 216.2419 546.8736 217.5738 549.091 219.2154 551.2215 222.3362 551.6911 223.7949 553.1152 225.0645 555.7377 231.9467 555.7797 232.9045 557.004 233.5004 557.2324 235.3389 559.1551 236.4103 561.171 238.9176 562.9207 240.1308 563.6635 241.0889 566.4578 243.2475 569.759 245.0569 572.1967 245.2771 573.4322 245.7958 577.2671 246.7562 579.0167 247.7417 581.9318 247.8841 584.2719 248.987 584.2949 250.2315 585.2111 251.3626 588.2499 253.0942 589.7654 253.1837 591.6324 253.9162 593.0459 253.9998 593.2718 254.8409 595.0246 256.1212 597.8462 256.6784 600.129 257.533 602.8547 256.7412 604.393 254.7268 607.0387 257.2856 608.5242 257.5736 609.6116 258.3026 611.4294 256.9421 612.853 256.7958 615.3559 257.4997 617.4441 259.5655 620.3615 262.0017 621.6858 262.823 622.0838 264.0101 623.7345 263.958 625.3593 262.7396 625.288 264.4874 626.0134 265.5343 627.9921 265.9231 626.9934 267.5423 626.8166 268.9033 624.9376 269.285 622.9034 266.8056 621.5936 266.164 618.5324 266.1283 618.2886 265.198 613.5286 262.8322 611.8192 262.4944 611.6669 261.8733 608.7696 261.3052 607.4341 261.872 605.1178 262.1228 602.8967 261.9142 601.1288 262.1397 599.6123 261.8077 598.4202 262.1283 594.2281 260.9584 591.1871 260.4444 589.0715 260.6781 587.0291 260.2429 583.9028 258.7811 580.2202 258.0824 577.0096 258.5309 573.7979 258.5928 573.1984 258.9947 568.6787 257.8702 565.1482 257.6905 562.4603 256.9606 559.1706 256.3483 555.7805 256.54 549.6863 255.9139 548.0596 255.3155 544.3943 256.5941 540.4955 259.1479 538.9534 259.6032 535.056 258.4359 534.6131 259.5561 537.8521 260.4913 537.1146 261.3754 535.4949 261.0594 532.6068 261.5005 529.5004 261.4546 527.3734 260.5689 524.0858 261.2687 522.271 261.8925 520.8599 262.9433 519.6599 262.926 518.6536 263.6273 518.1516 265.0326 516.754 265.8995 514.3359 266.8077 511.7775 267.3094 509.8987 267.1022 509.1567 268.1869 501.8831 268.1688 499.9194 269.4162 497.563 269.4719 495.1375 269.1614 494.4506 269.5407 488.8321 270.1139 488.2982 270.7987 486.6302 271.4437 485.3501 271.4265 481.767 269.1604 480.7399 267.9329 478.9147 267.679 479.5622 270.0042 477.7434 270.2918 475.9881 269.7748 473.966 270.3981 471.2145 269.6965 467.3619 269.9028 463.3999 269.3827 465.083 271.1373 463.9729 271.6859 461.137 271.7168 460.9407 272.8637 457.3278 274.1005 456.4431 274.7525 453.682 275.5866 451.6967 275.7816 449.7802 276.3402 446.2928 276.4727 445.4646 276.2096 442.0616 276.8377 439.4482 278.0364 438.2947 278.1858 433.6909 279.9451 432.8835 282.3551 432.2263 283.2201 429.0914 284.9217 426.4373 287.0133 426.1427 288.1994 424.7083 289.1911 421.9667 288.9549 419.0764 287.5359 415.9453 287.8495 414.6006 287.5655 412.0998 289.2024 410.6455 291.98 410.73 293.8289 408.8936 293.8816 408.3202 292.8368 406.1153 291.6599 403.344 293.1777 401.366 293.2056 400.7437 294.3839 399.2536 294.1227 398.4193 296.955 396.513 298.0774 396.2783 298.7075 394.6461 299.2606 393.696 298.7666 389.8731 299.6422 389.3331 300.1459 387.1935 299.6223 386.0613 301.0524 383.4025 301.3463 380.7494 301.9572 378.4791 300.5448 373.4589 301.1465 372.8972 301.6858 367.2977 302.1477 364.9447 303.2885 363.3303 303.6466 362.7569 305.0826 362.8053 306.9754 361.8776 307.7452 356.7683 309.7811 355.4565 310.4744 353.7293 310.2894 352.8751 310.7445 350.6626 310.6419 349.3839 308.9223 345.6431 310.3271 344.5644 311.5926 344.5188 312.6856 343.1625 313.2308 341.782 314.3337 340.2915 314.2252 338.3436 312.0652 335.8758 311.6109 335.1578 312.402 331.4901 310.3603 330.7587 309.5382 329.302 309.236 327.3964 309.4035 324.6383 308.7919 321.4823 307.4017 320.3416 306.0675 318.4813 305.9382 316.6254 306.3646 315.0811 305.9447 313.1278 306.566 306.7315 305.5034 305.0003 305.7095 303.1892 304.8274 302.0972 305.1031 298.2255 304.1453 298.655 302.4813 299.0362 298.7845 298.342 296.7835 296.2027 295.0379 294.719 294.6717 293.3157 295.3043 292.3607 296.2656 290.2784 296.1992 289.3808 296.5585 287.886 296.0759 286.4077 296.6938 285.3443 298.28 284.0523 298.2073 283.2789 297.0075 281.944 296.7008 278.9251 294.242 276.8603 295.0874 276.0995 292.7795 274.2533 290.3251 274.5832 289.7734 277.1423 293.0094 279.4733 292.992 281.0999 294.0632 282.4623 294.0144 283.3932 294.559 283.7486 292.9253 283.3424 290.1049 282.0138 290.2513 280.7699 292.2262 277.0885 291.2099 276.8365 290.4431 279.3249 290.283 279.543 288.3881 278.0941 288.7509 276.7798 288.4771 276.2224 287.3505 273.9249 286.5076 274.0304 284.9937 276.2862 285.142 276.8615 284.2501 275.1203 283.6723 274.7473 282.3558 273.0283 282.1264 272.0217 279.0153 273.5871 278.4196 273.4712 277.3958 271.7257 275.7325 270.4214 277.2623 269.0467 276.3737 267.4235 274.4475 267.9886 271.6054 265.2576 271.04 265.6177 268.639 264.7805 266.9761 259.6028 262.2885 258.549 260.9206 257.216 260.0909 255.4055 259.6057 253.96 261.0774 254.0019 262.2139 254.9459 262.9312 255.9158 265.2501 257.0462 266.0661 257.6132 267.9352 258.5694 269.138 257.5624 270.7634 256.0984 271.5436 256.9701 272.4944 256.1323 275.2901 256.3284 276.5035 257.9903 279.5201 260.1097 278.6426 262.919 278.2566 264.0698 278.5329 265.2293 280.0527 260.9981 283.2548 260.2534 283.5474 262.2674 286.1888 260.9304 287.5218 259.3564 288.0663 255.3265 287.1494 254.1437 285.7337 253.6106 283.7912 252.5918 281.7746 252.5072 280.6205 251.1872 278.7269 249.6894 278.1255 248.2199 276.2707 246.299 276.1488 244.8605 277.1791 244.3415 278.4012 242.8465 279.158 240.7801 277.7942 240.908 276.0021 238.6873 275.2259 237.1579 275.7433 235.0903 275.3496 232.7283 277.0557 229.6838 276.3272 228.6923 274.3622 227.4089 274.3298 224.2306 276.8149 222.8381 278.7333 222.7977 280.5093 221.8382 284.0604 219.9727 289.0211 219.1427 292.9414 222.6078 296.9144 222.4842 298.1494 220.6143 298.6476 220.1391 299.7803 220.1492 301.3234 222.034 303.8278 224.3446 305.9598 224.5139 306.6491 222.4506 309.5826 219.1927 312.1774 218.4865 313.3397 217.3988 316.5104 217.2906 318.7205 218.797 325.4616 220.9251 327.301 221.439 329.8573 222.4013 330.5552 224.4036 331.0526 226.266 330.976 227.532 332.2385 227.0854 334.5221 227.7982 335.8302 227.7819 337.449 226.6994 337.5507 222.8392 341.0317 222.4243 342.7588 222.8994 345.7414 223.4719 347.4828 224.4629 348.9726 225.5777 349.6147 225.9016 351.2579 225.9517 354.8772 227.0225 355.9864 229.5225 356.6322 231.7078 356.4348 232.0738 357.8246 233.2388 359.8958 231.9673 360.0741 231.342 362.71 231.3147 364.9661 229.9263 365.3856 229.3982 366.2956 229.9701 367.5232 231.7424 368.1603 231.8695 369.9562 233.1492 370.291 233.1335 372.3409 235.8691 373.6277 239.8749 374.9029 241.7533 376.0445 243.4034 375.3818 244.6414 375.7535 246.4007 378.4247 246.8938 379.768 246.3657 381.7256 244.5341 382.3563 243.7258 383.9633 241.9351 384.508 239.6096 385.8749 238.005 387.7396 237.1991 390.8116 237.6132 391.4121 237.0217 392.7232 237.0162 395.044 238.1558 398.7015 240.2607 401.2185 242.1997 401.8519 243.9529 402.0199 245.0132 403.2339 243.9577 404.9802 244.3357 406.1074 245.7622 407.4061 246.3636 409.2 246.0043 412.3429 246.1507 413.3261 248.406 415.7032 248.1245 418.1374 247.6408 418.9689 247.571 420.6949 246.8241 423.4528 246.5546 427.7051 247.3065 430.1398 248.3217 431.0039 247.6921 432.9935 246.7586 434.375 246.373 437.9234 246.6603 440.89 246.5466 444.3596 246.7061 446.6102 247.3649 448.7855 248.0674 449.772 249.3427 450.4384 251.1855 452.4799 251.8849 453.7798 251.7947 456.8653 249.7465 458.8624 247.4325 460.0607 246.045 463.7403 244.0407 465.0877 243.0587 466.6412 242.5307 469.0596 242.6058 471.0734 242.1728 472.1988 242.7355 474.7653 241.4521 475.6733 239.9426 477.9745 239.0415 478.4567 237.7322 480.1043 238.1662 482.6076 237.1566 483.5524 235.6038 483.8919 235.0704 486.2919 232.6429 487.6567 231.2716 487.8588 227.5873 489.5662 225.8327 491.5823 225.8397 492.8345 223.652 494.4714 222.7303 496.3444 219.9167 496.4193 218.6057 497.8436 219.3302 498.7645 217.0358 499.2086 215.463 501.3413 213.3169 503.165 210.4633 504.1092 209.1677 505.2906 209.1161 507.104 207.1801 507.0232 205.4899 507.6499 204.2917 508.7163 204.6914 509.8973 203.7265 511.4109 203.5017 512.6004 201.6095 513.2606 199.5696 515.7426 197.1423 515.9696 195.4269 516.6989 193.6324 519.0872 193.7242 521.0714 193.272 521.9749 193.5241 525.6446 191.5693 527.9259 190.1946 528.3841 188.338 529.6864 187.9003 531.794 188.7407 532.1797 189.5299 534.5059 189.2741 535.5258 187.8254 536.1115 187.1208 535.2712 185.9255 536.1004 183.5507 536.7306 182.5899 535.5875 181.1543 535.6348 179.8295 537.2121 178.6423 537.0313 178.2551 540.4313 177.1761 540.5742 175.582 539.811 174.7722 541.2486 173.7669 541.3648 171.3975 539.7205 170.4753 539.9063 167.3465 539.3687 166.4585 540.0574 164.0614 540.1029 163.9364 539.2358 161.8626 539.2934 160.3815 537.9832 157.6819 539.2847 156.6006 540.8083 155.5669 540.7334 154.4006 541.4113 152.0415 543.6067 150.7981 545.2413 150.0116 546.8636 148.5007 546.5196 146.9785 543.705 146.0138 543.3477 143.2945 543.7714 140.9063 544.8385 138.8963 546.2264 137.3544 547.7661 135.5745 550.0254 135.3494 552.0968 133.6932 553.4402 133.1698 554.9115 130.0237 555.5607 128.6379 556.93 125.8728 557.0974 124.0782 557.725 120.2018 558.2357 117.9652 558.219 116.4731 559.0863 113.4538 559.3915 112.2824 560.5706 108.8934 560.8352 106.0295 558.5494 104.4882 558.0944 103.0363 558.9415 101.809 558.7781 101.5476 556.7466 101.9064 555.3911 99.3936 552.6603 100.1592 551.6535 100.4683 549.894 100.3477 548.1393 101.3576 546.5086 101.1845 544.1114 99.2332 537.372 99.3571 536.6529 98.3532 533.8079 96.4199 530.4856 93.684 526.3966 94.2593 525.3482 92.7734 523.6106 91.4979 524.3572 89.7508 523.1268 86.6787 522.3065 83.8959 520.2545 79.1945 515.7413 77.744 512.8531 76.847 512.5944 75.6232 511.1921 75.8822 510.2848 73.7608 508.0174 71.1447 505.6272 67.4867 503.4229 66.2193 502.1005 63.2858 497.5723 62.8706 494.0362 62.7912 486.7777 61.2252 482.9843 61.5332 481.4439 60.6141 478.0549 59.0834 475.7675 59.1004 474.8476 55.9774 472.4649 55.5211 468.9981 54.1267 468.2538 50.801 464.4765 49.372 463.6214 48.763 461.8759 46.361 460.0124 45.2728 459.8126 44.9242 457.8269 43.4476 455.4489 42.8253 454.9762 41.2489 451.0548 40.3394 449.7579 39.7466 446.6863 40.2631 441.8089 41.1163 440.3834 40.9601 439.1866 41.652 436.9302 41.9031 434.6866 41.0562 429.4048 42.3292 428.173 42.6807 425.9694 42.3166 424.6142 41.3771 424.5692 40.5791 422.7538 43.4347 420.525 43.8489 419.6623 42.839 418.7766 41.0655 419.0532 40.1757 419.7815 38.6961 419.7277 36.991 416.1463 38.4462 415.4203 39.5838 414.3232 38.5914 412.6283 36.5273 411.3717 38.2638 409.934 37.1158 407.4731 35.8903 407.7069 35.3509 406.0559 35.6368 404.941 37.3502 403.79 36.7159 400.3591 35.5377 398.447 36.5178 397.4354 35.8837 395.1842 35.9097 392.6918 36.3391 392.0575 36.8199 389.4348 35.869 386.4974 37.4516 383.3286 39.8777 382.1837 40.2995 381.052 40.2471 378.9716 39.4132 377.749 39.2207 375.4838 38.4483 374.1726 36.4204 373.2233 35.5856 371.614 32.2521 370.4886 30.8226 370.8061 30.2473 370.1112 31.3351 369.0216 31.2035 367.0246 33.1824 365.6776 32.7041 364.5155 33.979 364.029 35.0971 361.6485 34.4573 359.9725 34.7237 357.2142 33.9099 353.9821 33.993 350.7956 33.7724 348.7158 34.4305 347.1713 34.5484 345.7309 34.2226 343.4141 33.1653 340.4737 34.283 339.2915 32.8885 337.5389 31.3936 336.2405 28.8583 336.2341 27.4097 336.6548 26.2121 334.0203 27.2486 332.9064 26.3392 330.4136 26.6818 329.863 26.3237 327.8662 26.9415 325.7093 26.6352 324.8712 27.901 323.7768 27.8312 322.5094 26.1998 321.394 26.1569 320.1863 24.3392 317.6069 22.9479 316.312 23.7985 314.401 23.4935 311.9702 24.4483 311.2712 24.5638 308.8838 25.3129 306.4385 27.4175 304.2473 27.6862 302.5211 27.2083 300.716 27.8281 298.2768 27.6907 296.3679 26.563 294.4121 25.5635 293.8088 25.9972 292.2613 25.5073 289.5237 25.4322 287.3973 24.9483 285.8818 23.0783 282.5423 21.5585 281.3812 19.5598 278.4706 18.2398 275.7563 16.6823 275.7467 15.3929 275.2256 13.6671 273.2658 13.2762 271.4818 12.0435 271.26 11.3336 270.166 9.1718 269.119 8.9989 267.35 8.1909 264.1446 7.4884 262.9371 8.0499 262.0545 7.543 260.2994 6.5626 260.0765 7.1411 258.7382 5.6714 257.6918 5.5576 256.1282 4.4126 253.9963 4.586 251.5004 5.451 251.0987 5.0994 247.7333 3.5443 245.6138 4.3669 243.3757 2.4761 242.9985 2.2844 241.7013 1 239.2722 Z M 466.9203 565.4868 468.4262 564.1951 469.6578 563.92 475.652 560.5753 479.2907 558.7579 483.186 556.0451 484.6383 553.9893 484.9946 551.5854 485.0668 548.406 485.5982 545.0025 485.8076 541.6641 485.0961 539.2414 485.655 538.3568 485.4363 537.0105 485.7919 533.5484 485.1249 531.7547 489.7356 531.5005 492.2647 530.9971 496.0409 529.8146 497.3691 528.7756 497.119 526.997 498.387 525.7898 498.078 522.8588 497.5302 521.7781 497.8473 520.8655 499.4957 521.118 502.5253 520.1475 503.3944 519.1872 503.2349 517.6891 503.9243 516.4736 504.9734 515.8753 504.6976 514.5924 505.4611 514.0296 506.5875 511.2843 512.5118 505.0002 513.5707 504.3409 516.8355 504.5427 517.3903 504.0095 519.856 504.0318 521.4333 505.0779 522.7389 503.7477 525.2637 503.4686 526.8527 500.934 527.7406 503.4441 529.2941 503.3304 529.735 504.4716 530.8691 504.0056 536.1673 505.9214 540.9808 507.8491 542.253 508.5842 542.2442 509.364 543.9319 510.3388 545.5287 511.7241 546.1155 512.8211 547.3693 513.68 549.7556 514.1429 550.5127 515.8006 552.4359 515.3081 553.6495 516.4728 555.0385 515.3918 555.1621 516.8808 556.026 517.0399 558.7686 516.3729 559.031 516.8832 560.8677 516.6816 559.3206 519.5939 559.9305 520.6058 561.4807 519.4335 563.3575 519.6801 562.98 522.4842 564.3406 521.8227 566.5536 522.0189 567.6291 522.8378 569.2832 522.3381 570.6035 523.6911 569.736 524.3212 569.6583 525.5784 572.2453 526.9284 570.6617 530.0631 572.3856 531.2872 572.1177 533.3743 571.418 534.6363 573.0837 537.1763 574.9856 538.0979 574.9043 539.5433 576.196 540.0424 578.8392 539.4806 578.9947 540.9158 577.5839 542.7405 578.0704 543.4131 580.645 544.6117 582.3231 544.8479 584.2614 547.2902 584.3158 550.179 585.0366 550.9003 587.2865 550.8571 589.1346 551.5104 592.4044 553.3703 592.8553 554.101 594.508 554.9345 596.7911 556.866 597.9917 558.767 601.8254 562.8709 603.1028 566.6304 604.252 568.664 604.196 569.6935 604.8333 572.7831 605.7742 574.7212 606.0289 576.2428 606.9174 576.7094 606.5847 578.655 605.176 580.1929 605.0497 581.4002 605.8792 583.2287 605.9542 585.67 604.9725 587.6132 604.4987 591.053 603.2519 594.3836 600.8738 598.7218 599.8847 601.9171 599.09 602.8017 599.4238 603.6706 597.9237 605.7132 596.8477 606.3307 593.8714 607.2959 591.84 607.5535 590.9935 608.6486 589.4988 609.1891 588.6343 610.2917 586.97 611.0436 584.5829 611.5652 583.026 613.7038 581.9495 614.6685 580.7751 618.2359 579.3398 618.5987 576.8928 620.0232 574.0181 622.9241 571.6823 623.7236 570.0596 624.8311 569.3202 626.516 566.2147 628.1672 563.9473 628.657 563.6962 629.6725 562.4603 630.2226 559.8987 632.0394 558.1682 631.9791 555.2112 633.5221 552.5758 634.2528 549.6654 634.7332 545.8041 635.1015 544.2862 635.5674 543.7295 634.96 539.5789 635.4501 538.188 637.5591 536.3381 638.1689 535.1378 638.0763 534.6707 638.9524 532.6373 638.298 531.8342 639.0053 530.5038 638.5144 529.2678 639.3459 528.4114 638.7807 527.129 639.4724 525.2564 638.9789 523.7402 639.9224 522.2685 639.1097 520.9978 637.2284 518.9988 635.989 515.1494 636.2512 514.3802 635.2348 512.4059 635.0591 511.2425 633.6895 508.5722 633.2906 507.1108 632.7162 503.785 631.927 501.4323 631.787 499.2608 630.5459 497.1511 628.4048 495.0872 627.2674 492.7124 626.9957 487.6147 625.7937 485.9426 624.552 486.0915 624.0027 482.3539 621.1962 482.4253 620.76 479.6226 618.3032 477.1239 613.1604 476.5614 611.3719 474.231 609.9645 473.091 608.5046 472.3717 606.3172 474.0942 604.0528 474.6039 602.2174 473.7205 599.3937 473.6909 598.382 471.8653 593.2695 471.5411 590.1746 470.7481 588.8696 470.3912 585.1355 469.4769 581.2766 469.2749 578.8175 468.4426 574.0251 467.3064 569.6198 466.9203 565.4868 Z M 702.1083 218.485 703.4186 216.5734 703.0601 215.9886 704.4092 214.58 704.5638 212.5597 704.1886 211.5078 702.843 210.0576 703.4804 207.8216 706.6508 206.8858 707.7703 205.7109 708.0902 204.3938 709.6133 203.1523 710.2584 201.0514 711.0854 200.3397 712.8121 201.0836 714.7802 201.1966 717.5763 200.3426 720.1581 200.7174 722.5734 199.7747 723.235 198.693 723.1141 196.8864 724.1743 196.0686 724.1649 194.5874 726.1019 192.8457 727.9764 192.981 730.8183 194.7507 734.6044 192.5416 736.0593 192.39 736.9576 191.1002 737.9736 191.2442 740.271 190.3843 740.4677 188.9707 742.75 188.0919 744.0431 186.5029 745.4419 186.281 747.7707 185.0751 748.8154 185.3261 749.7846 184.3646 751.3009 181.873 752.6177 181.606 754.1196 182.1232 756.949 178.3729 760.3988 177.1274 761.0963 177.9443 762.5231 176.2655 764.1788 175.6751 764.8009 174.4107 767.2275 175.6961 768.2745 175.4702 768.8338 172.1537 770.2235 173.0189 770.964 172.6605 773.4865 169.8951 775.0054 170.0827 775.0937 168.9037 776.9801 168.2876 778.4198 169.3389 781.4854 168.1494 781.9546 167.3098 782.431 164.317 786.87 164.1027 788.999 162.3729 789.7444 163.4809 791.0353 163.5126 791.4809 164.8467 791.1014 165.7591 791.8026 166.6513 792.0215 168.1323 793.8466 167.6303 792.6986 171.4114 794.4251 173.3443 794.9437 174.6257 796.2334 175.0812 796.113 176.4002 796.8534 177.6972 797.9527 177.7144 799 178.6002 798.3811 179.7402 796.4101 179.1252 795.9145 180.352 794.2735 181.533 791.8612 181.8697 791.3145 183.4614 789.4725 183.6653 787.3334 184.3369 787.1467 183.3511 785.6568 183.7433 786.2996 185.3171 785.1661 185.6912 784.0637 184.877 780.704 185.0452 779.7455 185.8544 777.2852 187.1164 776.1653 187.3297 770.2896 190.7251 767.4497 192.6111 766.8139 193.5211 764.1991 194.5646 761.7534 197.7777 760.0862 197.9745 756.8692 201.0577 754.0562 203.2804 751.7134 204.6813 749.5623 205.2548 746.2409 206.4821 743.973 206.9542 739.7851 207.3726 736.9782 208.596 733.5583 209.2896 732.2359 208.9385 729.8386 209.7388 726.5767 209.5775 724.1401 211.1965 723.3555 212.8979 721.6369 212.5271 720.0412 213.3078 719.3165 214.4519 715.9674 216.0603 713.7062 216.4793 711.4825 216.234 708.6203 216.9478 708.2691 217.6042 706.0117 218.8729 704.8351 221.7611 703.1494 220.5474 703.0331 219.42 702.1083 218.485 Z M 201.2099 648.8194 202.4861 647.0595 204.0868 646.4467 206.58 646.7652 207.6066 646.1099 207.7805 644.8997 209.0234 642.8497 213.901 642.2358 215.6664 642.4486 217.661 641.9063 219.864 641.8756 221.3468 642.6207 223.2136 641.9645 223.7341 641.2762 223.0556 639.9542 224.5886 639.4385 224.436 638.5243 225.3457 637.3049 225.2118 636.0723 224.3347 635.4596 224.2197 633.5983 222.2522 632.1821 222.7384 630.3655 224.8627 629.2569 225.2999 627.0654 225.9854 625.4113 226.758 625.6718 227.2483 627.3986 228.3024 628.3282 227.6393 630.1367 228.8211 630.5767 229.858 632.5423 231.6487 631.7162 232.3096 629.7464 232.4058 628.2976 233.4882 624.2054 233.6715 622.7783 235.5482 624.2119 235.7699 625.3873 237.0594 627.6053 238.3076 627.3597 238.9866 628.0019 237.2514 629.8192 238.1871 630.9617 235.6742 633.2336 236.0338 634.0425 237.5338 635.0461 239.2499 634.3051 240.4464 635.2153 238.9079 636.9136 238.3197 636.5092 236.2367 636.9081 236.3851 638.0563 235.3317 638.9654 231.9508 638.7284 230.6973 640.0484 228.7845 644.4406 228.8539 646.7878 231.2697 648.0025 230.0269 649.8335 228.884 650.7483 226.6484 649.2946 225.0104 649.2779 222.9725 648.7555 221.3631 649.2137 220.3131 647.4601 218.5875 647.4565 217.9514 650.4158 216.2241 652.7465 214.3735 653.6299 213.8297 652.9948 210.5423 652.9512 209.7867 652.1883 207.625 651.2723 206.2998 650.1179 205.5575 648.6196 204.0686 648.4543 202.1164 649.5755 201.2099 648.8194 Z M 157.7856 658.0079 158.5617 656.7261 159.5858 656.1909 159.5685 653.8431 161.5322 652.2742 161.4402 650.4597 161.8919 646.7953 161.8465 644.894 163.739 646.0772 166.9093 644.2833 169.39 641.9037 170.557 639.797 172.0276 635.5527 173.0349 635.314 173.5116 638.5415 176.4722 638.3335 178.9142 639.5058 180.5963 639.5164 183.8897 640.2581 185.1268 640.982 185.277 641.979 183.847 643.459 183.2009 644.731 183.1027 646.2303 183.9977 647.4703 186.8729 647.0313 188.8628 647.8578 191.5236 648.0037 193.4495 650.4111 193.351 652.0915 191.3153 653.31 189.6104 654.889 188.2929 653.0795 188.4816 651.2765 187.7219 650.7223 185.8825 652.0623 185.5792 653.0575 185.8255 655.0949 184.5442 656.8288 182.5832 658.1186 181.1815 661.6511 180.015 663.8324 178.5372 664.7 176.8432 664.5507 175.6049 665.5263 174.0076 665.713 171.9833 664.5356 171.1184 664.4361 168.9347 663.0602 165.9715 661.8195 163.8229 660.5106 159.4491 658.8517 158.3241 658.8882 157.7856 658.0079 Z M 209.3184 670.0181 210.646 669.8032 212.2051 668.7078 212.4621 667.2134 214.9061 665.6631 215.9208 663.1298 217.1513 664.4981 220.6887 666.8375 222.0656 669.2697 222.7318 669.7655 222.7755 671.3227 221.4668 672.9997 219.7298 672.839 217.3265 672.1408 216.3889 671.1923 214.6658 670.7419 213.1402 671.2347 209.3184 670.0181 Z M 686.9812 333.5616 688.813 332.9122 689.8065 331.4419 691.1044 332.0358 693.5208 331.5222 695.3035 329.9743 697.6533 330.3533 697.0309 331.5198 695.9218 331.9678 695.7302 333.4409 694.7168 334.9162 690.7117 334.7456 686.9812 333.5616 Z M 669.7972 338.2468 672.6898 337.2666 675.3648 337.9425 678.099 337.4813 680.2974 337.8061 684.8979 337.8625 687.7467 336.9631 688.5523 336.2305 690.1859 336.1469 691.8687 338.5576 692.8107 338.0116 694.4724 339.8576 693.9942 340.5783 692.0868 341.5878 688.3083 342.0944 686.4356 342.1059 684.2959 342.7105 683.4287 342.3464 681.0839 343.3793 679.2772 343.2388 677.4939 342.2365 674.0783 341.8772 671.7912 340.7313 670.438 338.6348 669.7972 338.2468 Z M 28.4099 144.1334 29.5136 142.3819 30.0351 144.0695 31.0858 144.3493 32.4298 145.727 31.6969 149.2405 29.696 148.2481 28.5492 146.342 28.4099 144.1334 Z M 206.2322 629.2766 208.2308 628.2242 209.1576 629.3186 210.133 629.4849 211.2751 628.7417 212.0235 629.3352 213.6365 629.4248 214.0738 628.6458 215.4749 628.4392 216.6912 630.5344 215.1567 632.0944 215.0717 633.3024 213.6582 634.673 212.7298 634.2837 210.9696 631.451 206.6819 630.0855 206.2322 629.2766 Z M 195.7943 667.8596 196.7221 666.4812 197.5053 667.0508 198.4656 669.1062 195.7943 667.8596 Z M 18.3807 342.6692 20.4688 340.8753 22.411 342.152 22.0569 343.1606 20.8982 342.6026 20.0904 343.4597 18.3807 342.6692 Z M 239.3949 633.5215 240.4859 632.186 239.8997 630.6441 240.8333 630.4939 241.5054 631.4207 241.0436 633.3495 239.3949 633.5215 Z M 276.5664 162.9319 277.1969 162.3642 281.0965 162.7697 281.8374 164.4292 281.0575 164.8409 279.9981 164.0111 278.5097 163.8677 276.5664 162.9319 Z M 263.151 295.1692 264.031 292.3489 264.7873 292.7661 265.6434 294.9231 266.6905 295.9829 269.2641 295.5395 270.2846 295.8601 271.3574 297.0513 270.7167 297.9911 267.2984 298.0226 264.2854 297.4059 263.4725 296.6566 263.151 295.1692 Z M 314.1292 311.8129 315.0186 310.9655 315.867 312.5657 314.707 312.8125 314.1292 311.8129 Z M 210.689 170.433 213.8193 166.94 213.9889 165.9251 215.0044 165.4784 216.3166 163.285 217.0353 160.2801 217.6279 159.3461 219.8699 159.5079 222.1976 160.645 224.7364 161.0917 226.9359 162.5543 228.2482 164.5434 227.4861 165.1933 228.0786 166.8995 226.2596 167.9557 224.059 168.361 222.0704 167.9557 217.8813 167.793 215.9775 166.6559 213.9041 168.361 213.3963 169.6205 213.6083 170.7171 211.1543 170.8384 210.689 170.433 Z M 296.3885 163.4011 298.2733 163.0658 299.6382 163.8066 299.2157 165.296 296.5753 163.9937 296.3885 163.4011 Z" id="01"/>
  </g>
</svg>
