<?xml version="1.0"?>
<svg xmlns="http://www.w3.org/2000/svg" version="1.2" baseProfile="tiny" width="800" height="980" viewBox="0 0 800 980" stroke-linecap="round" stroke-linejoin="round">
  <g id="Guyane">
    <path d="M 1 919.7758 3.5767 915.7636 9.2212 914.24 15.5354 915.7878 19.9155 917.7247 21.6186 920.1559 27.5781 917.5517 25.7781 912.4942 27.2299 907.8809 27.4235 903.8893 30.0606 900.021 32.6267 898.555 35.9723 892.6787 45.1398 893.9284 47.264 891.8504 50.2615 892.011 54.5336 887.0987 56.0162 884.0665 59.0523 883.185 58.6751 880.3943 63.1068 877.5707 63.9554 872.885 69.2891 869.3068 70.9817 864.6576 70.6612 858.3413 73.2794 857.6961 75.1663 854.7764 74.6529 852.8299 76.7397 850.2968 76.4643 846.973 78.0432 843.2782 77.7187 840.3973 82.5463 837.0414 85.2524 831.2045 87.6527 831.3112 92.3598 815.1674 97.5336 812.7813 100.2939 807.6491 102.2407 808.0224 107.7456 800.5673 107.7723 796.6749 109.9592 793.5558 107.2364 786.4622 111.9415 784.7656 114.063 781.9946 114.3741 776.9427 112.5449 776.528 110.7157 771.5894 113.4218 766.0854 111.7623 760.7322 115.1473 759.7897 116.9105 756.2838 115.7225 753.0325 115.9428 747.1912 113.3169 741.076 117.2666 738.8006 117.435 736.3843 113.5762 726.8769 111.3442 725.522 110.774 722.8643 116.2724 718.5586 114.234 716.4942 116.3148 712.287 114.8922 707.3632 112.2207 704.8624 110.4546 706.6895 106.4971 706.4618 105.4736 704.9595 105.5191 699.9061 109.1809 697.7436 108.3167 694.716 112.7839 684.7795 116.3706 684.6769 119.1516 678.6896 122.0231 677.7506 122.2221 674.3077 127.5387 667.934 129.4139 662.8239 133.3296 663.0861 135.746 660.5949 141.2602 661.831 144.3428 659.0283 145.8066 656.1151 145.1138 653.3673 146.2912 650.5233 146.3609 645.7548 148.5688 643.1398 147.5104 636.6557 150.1308 636.2679 154.1385 631.3862 157.8322 629.1827 159.8774 625.5577 158.0161 623.2275 158.5449 617.5312 160.569 615.5657 160.8486 604.7358 162.9424 598.5506 160.9436 597.0987 162.0266 588.9728 166.0491 584.8896 168.4356 577.5419 165.4611 574.2593 162.2771 566.9789 159.3123 565.3063 156.3228 566.9723 155.5843 570.2454 149.3626 569.6136 149.7393 565.8675 147.7842 562.8234 140.6619 558.7229 139.7618 555.2389 141.9226 550.0084 140.4456 545.952 137.1225 542.9098 135.784 538.162 132.7378 533.7832 131.0301 528.5287 128.9657 525.7671 119.953 523.9656 113.9068 525.3023 109.7155 523.4261 108.9732 519.2331 111.9661 515.1305 110.5554 511.6129 100.0271 509.6169 96.2296 503.5483 95.0849 495.3252 88.6133 492.2186 85.2657 489.3275 79.5005 471.6336 77.67 468.2809 72.3707 461.2759 68.7384 459.746 66.7756 457.5297 70.3745 445.9314 70.3238 441.1207 75.9862 434.8724 75.8016 431.5091 71.9707 430.0348 67.4938 425.9806 64.0783 423.9996 59.5552 423.4468 58.1244 421.1893 56.6004 415.4106 58.5881 405.2049 60.3398 399.0311 58.1706 396.1291 57.2475 389.6803 58.3709 379.5603 59.2961 377.5054 56.388 372.7977 50.642 369.5009 51.9437 360.472 49.6007 358.2447 44.6171 358.4443 42.974 343.8684 41.4805 334.3754 42.6006 329.9652 47.6048 323.8361 49.8453 318.7532 50.144 311.727 49.0236 307.3169 45.887 299.3935 44.8414 291.3207 46.7084 282.1269 45.887 279.2116 42.8248 276.8196 36.1778 274.2783 34.684 270.1672 35.2814 261.9451 35.0574 249.2378 35.8044 240.7915 32.817 232.7188 32.294 229.5793 34.1613 225.9167 39.715 222.5065 43.3537 219.3646 44.7853 215.9605 44.3832 207.6061 45.6647 204.7099 45.4166 197.7462 47.8746 194.5645 51.5766 184.8558 54.0275 179.6477 56.791 176.8823 62.5108 172.9932 65.1558 165.2963 69.5623 162.3812 69.627 159.6579 75.0144 151.3186 77.4792 146.3851 83.3045 137.5648 88.6819 131.884 101.5771 122.6167 105.8597 121.4193 111.1623 117.5325 117.8096 109.4598 124.8301 101.9102 127.0133 98.2086 128.6389 92.9405 131.0288 89.801 137.9488 83.3404 139.4367 80.1008 146.369 72.3424 149.4762 70.3667 155.7501 61.9202 160.9796 54.0074 161.6972 46.7154 159.0362 43.2334 157.0197 37.702 156.2727 31.1243 157.5423 25.0697 160.53 16.997 163.4427 10.7183 169.8657 1.0008 176.3069 2.183 177.5714 1.4116 188.9039 1.5177 191.0154 4.9805 201.7113 5.4025 213.0408 9.7371 217.4721 7.7054 223.321 10.4307 243.7585 22.3173 244.9822 25.1409 247.7015 25.754 263.4568 33.6876 266.2355 36.3502 270.9402 38.4429 279.0893 39.4971 282.7224 41.7066 294.9389 46.8881 306.9126 51.1423 319.8565 51.2533 324.0349 50.7039 339.885 54.9678 349.9525 58.0295 358.7047 55.6077 353.2853 53.7766 354.816 51.5946 359.3565 50.4863 380.0571 60.1478 391.539 63.7304 397.1522 66.0794 404.5997 73.0312 412.4033 77.4361 418.7877 79.4551 425.7588 78.8927 427.9654 79.6217 433.1023 77.4312 436.7122 78.8566 439.6738 77.6152 440.9731 80.2776 446.7567 80.2753 450.6746 82.8849 452.7482 86.6595 454.4058 86.7795 461.0377 93.8899 463.4932 100.1711 465.4559 100.8645 474.7173 110.6972 478.2856 113.7877 486.8999 119.4489 491.0689 124.6705 497.736 130.2305 505.8349 137.9808 516.3226 145.4172 521.5886 148.349 524.7147 152.7132 529.8981 157.9351 532.5328 159.1313 533.1061 162.5057 537.7517 161.6065 541.144 165.5976 542.1791 169.0557 546.4397 171.6411 553.4895 179.2316 556.2965 178.5538 560.8501 183.3431 562.071 182.8302 569.4096 190.8625 574.088 194.1025 577.0956 198.9032 583.0683 204.3576 588.9557 207.3073 589.4778 209.7547 592.6629 211.7492 595.7357 216.8806 602.9936 223.7857 603.9471 225.6962 599.7045 226.699 598.6455 230.1381 603.7312 227.9237 608.2608 226.8349 610.734 222.6941 609.8285 219.2373 619.8403 215.5064 623.7502 217.7658 625.3967 221.2515 630.0218 225.3406 630.1932 229.3341 634.6182 232.8256 634.3435 236.9887 629.6807 241.9828 624.9228 241.7182 621.2796 246.9628 622.8972 247.9614 625.6603 243.2973 627.6128 245.0671 633.0598 245.431 639.2704 241.0166 642.256 242.5498 644.6232 241.7298 647.2634 243.1228 650.0024 249.7984 656.0111 254.16 654.816 256.7393 656.4241 258.7951 659.4462 259.4496 665.8935 266.3752 668.9181 265.4804 676.1231 270.1374 679.0393 270.4229 683.2988 273.0275 691.3951 276.8399 699.3675 286.1127 700.2095 293.1841 699.5778 296.6369 700.9879 303.4534 704.4791 311.7159 711.3453 324.1341 712.6815 328.3349 719.9168 328.4257 720.6999 317.8886 720.7787 300.5209 724.4861 294.0032 724.4492 291.5608 731.947 290.6014 735.2926 291.5809 744.4393 297.5789 745.5264 300.2289 754.6578 308.7398 757.7059 315.7434 759.1765 324.6185 761.0217 331.0313 761.5697 336.8301 760.7238 339.506 762.5205 344.8064 768.2641 351.4351 766.3499 356.6144 772.9845 364.5988 777.2706 367.4214 778.8984 369.6925 775.8696 376.8583 776.2712 382.0991 778.0668 387.5656 784.1715 397.4646 789.1308 404.2314 791.0925 404.9283 791.1471 409.2593 794.6209 411.2237 795.5665 413.8804 799 417.3754 795.7993 422.7806 793.585 434.254 791.9703 438.2195 792.5753 443.7383 791.9558 450.6327 792.5825 457.1901 785.6518 462.3435 777.2768 467.4308 768.1722 471.481 760.5438 478.3692 759.0589 482.7541 759.5357 491.9964 755.3062 501.2902 748.9107 506.5803 748.0289 509.6856 744.4059 511.6859 740.6319 515.394 737.1755 519.9772 735.6505 523.2989 728.3498 525.962 728.7825 529.245 724.6295 530.7715 720.4673 533.8246 723.3017 539.7469 721.919 545.5981 718.1508 546.9064 714.3617 546.1141 708.5961 550.2434 706.3657 557.3643 704.8206 558.7038 703.1563 567.3541 703.8929 570.9863 701.1474 575.2796 695.4865 581.0115 684.5027 600.8681 681.8724 601.5706 681.7924 604.2937 677.3583 609.0868 675.6414 612.1253 675.3064 615.82 671.9099 618.5994 669.5587 625.2175 666.3196 628.739 657.5573 645.6068 654.8724 648.184 650.2188 655.2422 649.8247 660.0898 646.9066 662.4877 642.9009 667.957 640.7532 672.0467 637.2528 676.0478 634.3942 673.8032 630.0389 674.3595 626.5673 677.3321 622.2215 679.3231 621.625 682.8495 618.9526 687.558 620.3119 692.7134 614.193 694.6073 612.1782 694.3106 610.0778 703.9755 607.302 703.8481 606.5631 707.6083 610.0018 708.4937 608.1537 711.2154 607.9932 714.1631 613.1663 719.275 612.8795 721.3152 609.0166 727.2488 606.0617 734.4134 603.2684 735.9945 603.288 740.5913 601.2865 742.7869 601.6218 746.2677 597.8637 754.032 594.654 759.2845 596.2462 762.5566 599.6822 762.3878 595.9906 768.2308 591.4615 767.6616 588.0825 769.3599 580.0279 783.7261 579.1954 786.9076 573.7901 795.84 572.3235 799.3208 572.9101 804.1854 571.9464 807.4984 568.4266 813.7888 566.7925 814.8352 563.4561 823.5567 561.8638 825.2341 558.2303 834.6104 554.7413 834.1242 551.5569 838.1748 554.5974 839.9004 555.2831 842.2821 553.4111 845.3092 558.0591 848.7344 559.3749 853.4311 556.3339 857.6894 550.2394 861.5785 552.7732 869.2774 550.3591 869.8861 544.864 874.8755 540.4901 881.6995 534.7124 882.0275 534.5578 885.4332 536.9505 887.9422 535.129 890.0027 529.8786 890.1547 527.3971 893.289 527.9701 896.4284 524.3683 901.2339 525.3959 904.0088 523.3949 909.3814 518.2665 910.1628 510.8071 913.3707 507.8625 915.6973 508.4396 917.4591 501.9196 919.2756 495.7849 923.1828 491.1049 924.3653 487.3571 927.8325 480.6071 930.4415 474.8276 931.223 473.3087 934.0899 470.8547 935.1042 471.4217 938.5523 466.7586 939.7931 466.2193 943.393 463.7549 945.8113 462.8588 950.4456 459.5727 954.6313 456.2118 956.8739 451.4318 956.1264 448.1457 960.1628 441.4987 962.7789 438.5858 962.0313 431.7148 962.1809 427.1588 959.4152 420.8106 960.1628 417.7484 959.6394 414.8357 957.0233 409.8318 950.9687 403.7075 949.6981 391.9818 950.8194 384.2144 952.2394 380.8536 951.8659 372.0406 954.3324 369.3519 953.3607 364.8709 954.482 359.988 957.4068 357.9997 954.8557 359.568 952.6131 365.2441 949.1001 367.4101 943.9425 372.7875 943.7931 373.6836 941.4012 372.2648 939.1585 365.3936 934.9728 362.4809 930.4879 354.0414 926.3022 350.4563 922.4151 347.0209 916.7344 342.017 914.2676 339.627 915.7627 338.1331 923.5364 336.1166 925.1809 325.0631 930.712 320.6566 931.8333 314.3831 934.9728 308.6322 940.2799 298.5496 940.504 291.3049 942.5222 288.0188 942.1484 282.3427 936.7666 277.8615 935.6456 262.7749 934.2253 258.7419 932.7302 255.8292 930.1889 244.9249 926.3022 234.6184 925.5546 233.7222 923.1627 237.3818 919.4253 238.5022 916.884 233.7222 912.4738 231.631 908.9606 224.3118 910.8294 216.171 915.2393 213.781 918.3788 213.034 925.704 201.0844 926.6757 196.9766 929.9648 195.1841 935.496 191.898 937.7386 188.7613 935.3466 185.5497 935.1222 181.3674 936.3931 182.637 945.0638 181.2179 949.1001 172.7036 953.5103 165.6832 955.7526 159.5589 960.7607 157.7666 960.7607 150.8206 956.7243 146.5636 957.995 144.3231 961.2841 141.7091 967.9366 141.7091 973.094 136.257 978.6254 129.9087 978.9992 124.3818 977.1303 122.3653 975.4859 116.5397 964.7971 112.9549 963.1526 107.5027 966.8152 97.8683 970.1041 96.0758 970.1041 85.7692 967.3386 77.6284 966.2921 73.7448 964.5729 71.2054 961.6576 67.0978 954.6313 64.7078 953.3607 54.7745 956.3505 50.8909 952.8375 45.887 952.6131 39.6879 953.3607 34.8335 950.8194 29.3814 943.7931 27.2901 942.1484 18.4771 938.112 17.2075 935.6456 18.6266 933.4778 23.481 933.4778 24.6014 931.6092 20.2696 928.4697 16.0871 923.9102 2.6436 920.7707 1 919.7758 Z" id="03"/>
  </g>
</svg>
