<?xml version="1.0"?>
<svg xmlns="http://www.w3.org/2000/svg" version="1.2" baseProfile="tiny" width="800" height="668" viewBox="0 0 800 668" stroke-linecap="round" stroke-linejoin="round">
  <g id="LaReunion">
    <path d="M 1 216.3893 1.9621 212.9569 4.4335 211.4592 7.5257 207.6519 12.1709 203.4712 13.4365 200.1609 14.6252 200.7738 17.6441 196.372 20.6879 194.5714 25.2031 189.1408 28.2217 189.1078 30.6952 190.612 38.1848 191.8182 40.7494 191.8174 45.8758 189.2349 51.3081 187.4265 61.6183 181.4665 68.761 176.3306 75.5678 169.9615 79.3922 165.0189 81.3579 161.2746 83.2762 153.6921 84.2418 146.7081 86.0238 138.7235 86.1763 134.9945 85.4002 128.4612 83.3733 122.5974 81.6375 119.1148 79.2444 111.8767 79.5512 105.8123 83.0434 100.7471 83.9345 97.2576 83.8182 95.2049 84.979 89.4935 84.6338 85.1052 86.7326 85.1019 87.2362 86.6229 85.4369 95.5988 87.3784 94.6077 86.8754 91.7185 88.1851 87.0137 90.0107 87.2779 89.659 89.4152 92.8783 89.6991 93.2592 84.5962 91.7021 83.5746 93.127 80.3542 91.2045 79.2416 89.8532 81.9587 90.9128 83.5886 86.8644 83.2888 88.0066 80.5587 87.4812 78.28 87.9741 75.5121 87.293 72.3916 87.9847 70.5332 91.8942 68.1077 94.8972 67.4118 104.1368 71.6452 112.2283 74.5038 119.0453 75.2467 123.4183 74.5657 131.745 73.8846 133.5382 74.8215 133.5157 77.6133 125.3288 78.3802 125.551 79.9736 133.5671 79.581 137.8722 82.9906 140.7785 82.4882 140.7434 75.2628 141.1933 74.2045 148.4317 72.9486 151.284 71.1992 155.5061 70.193 164.5912 66.2344 168.4716 62.1783 170.993 60.942 172.3854 57.494 175.6647 52.1838 185.8263 47.6288 190.4796 44.218 194.9059 39.4719 196.4153 37.3239 199.4285 34.8448 203.323 33.6024 204.7688 31.9653 206.6254 31.5563 208.6378 28.8868 213.6333 26.5446 217.4501 25.2114 224.5419 20.6309 226.9449 18.5236 230.1555 14.4784 231.5061 13.6741 239.5713 11.2949 242.2265 11.1302 245.9668 9.9394 250.9519 9.1621 255.2699 7.3537 264.9987 4.3354 270.9562 4.2544 280.7782 6.1536 285.567 7.3722 287.7255 7.395 296.0935 4.7503 297.5659 2.3941 299.4936 1.2604 302.5213 1.0005 306.422 3.2572 310.6958 7.5427 314.5073 10.2856 318.7334 12.5246 320.6075 14.0357 324.555 16.058 330.0785 17.9515 333.1248 18.4412 340.684 17.8388 345.7463 19.1391 351.6725 19.344 355.2026 18.623 362.9028 15.9795 368.6318 14.6117 372.368 14.7927 377.3633 15.9888 381.5983 17.6063 387.1218 20.7392 390.5496 21.8698 412.6802 26.2981 411.4986 28.1562 419.0964 30.489 422.2125 30.5441 425.9231 31.3905 431.7759 31.4937 436.7896 27.8603 441.5823 26.5184 444.5199 27.4783 448.904 27.1376 453.8404 28.6138 455.9054 28.1079 460.8969 29.2021 464.6517 31.5969 468.8591 33.6613 473.0115 34.4251 475.3636 34.2496 480.9074 32.2162 484.5184 32.1956 490.3824 35.1889 495.3078 36.6856 499.2723 39.9885 510.3157 45.8436 515.2707 47.7436 519.2105 50.3003 522.8774 51.4961 525.9748 51.0832 531.0172 51.1178 541.0065 53.5343 544.6557 53.7359 555.1734 56.9595 561.1882 59.7207 565.5677 62.7381 570.6989 65.5694 574.7057 68.2378 577.9193 69.6637 580.2762 71.8288 583.4473 77.9382 588.4822 83.1257 597.6095 91.3574 601.7875 94.6799 603.5872 98.0027 607.2082 102.4828 607.8939 104.6479 612.2219 112.4292 616.2713 118.1314 619.0352 120.5107 621.0064 124.9696 622.4633 130.9503 622.8836 134.9281 624.0342 140.6373 623.3933 145.8702 624.3489 156.3309 624.4988 167.6063 624.339 171.8855 624.8892 177.6386 626.6657 188.5158 629.8153 191.238 629.5767 193.5229 631.9978 199.4822 633.2619 201.4757 635.5759 202.6547 639.9253 203.7267 645.2413 206.3374 649.2398 211.038 652.2733 216.1568 653.8766 216.2922 657.3235 224.1859 661.4757 227.5888 663.0651 227.9712 664.9505 229.8576 665.0362 231.2938 663.1764 237.3124 663.2427 241.6637 665.229 246.385 669.2143 251.5297 671.5925 255.967 675.324 260.1191 678.5929 264.573 684.998 271.0987 689.6029 274.1193 691.3366 276.4905 695.3123 280.5521 698.548 285.2734 701.5067 291.9782 703.4402 294.8602 706.974 297.7463 712.31 301.1058 715.141 303.6939 722.2645 315.2614 726.0177 322.6385 729.8284 326.2114 734.9179 328.0791 740.0963 326.4478 743.2783 326.6624 748.4032 328.2417 751.4981 329.8544 755.466 333.6697 761.4362 338.128 761.3876 339.922 764.7648 343.3155 771.3336 346.0486 773.674 344.7244 775.5259 345.44 778.3061 347.8503 779.768 347.533 780.7173 349.5403 785.0179 350.9654 786.4331 353.0702 785.1712 355.1832 786.8565 356.5339 787.6815 362.319 789.065 362.3639 790.2875 365.2231 792.995 369.6333 795.5347 371.3335 796.9014 374.1833 797.0461 377.4389 794.0987 379.0827 794.1713 382.2849 795.084 385.2282 794.4443 386.3711 796.6169 397.5539 798.6401 400.0553 799 402.151 795.6848 403.712 792.8176 405.984 789.1522 406.0799 785.422 405.3393 783.8384 409.9096 783.6971 415.277 784.8422 417.177 783.6033 418.7733 784.5954 420.9756 783.6071 427.9226 779.9873 432.9427 776.2734 434.5275 773.2262 437.3498 769.6492 442.7188 770.2131 445.1476 769.2137 447.16 768.0653 451.6314 766.6418 452.5855 762.9641 458.6194 761.8881 465.2129 762.8726 468.0873 761.2944 471.7199 761.0024 475.9809 758.7861 479.171 758.0415 484.7976 758.2032 486.6293 757.0348 492.3943 755.6027 494.6785 756.1789 495.7154 754.4712 497.8546 754.0564 503.4165 756.1461 508.3699 756.0546 511.7642 757.1472 515.8908 755.9719 520.3496 755.973 522.6124 757.8613 526.3528 759.8651 532.9939 762.3429 535.7317 761.2204 541.1502 759.0422 543.1825 758.5748 545.3125 758.8506 550.3352 758.2727 551.4881 757.9621 558.0275 758.3898 559.8079 757.5465 565.9251 757.94 572.3135 759.2333 576.4808 758.4107 577.529 759.779 585.3567 760.4405 586.9464 763.9093 591.8668 762.7256 594.0483 761.7546 598.7884 757.917 602.9838 752.5881 610.5199 751.0598 613.7419 748.7557 615.6846 748.3616 617.1748 746.173 617.488 740.6919 621.6694 737.6655 622.4065 734.5887 626.075 730.4588 628.5677 727.9706 631.4272 722.9274 633.4836 720.2014 636.4889 717.7574 635.9979 710.5826 636.8116 709.1054 635.148 704.9486 633.9778 700.5645 635.0306 699.3914 633.8998 696.0929 633.2608 693.919 634.0051 691.6557 637.4403 688.5235 639.5047 685.6834 639.3188 684.5651 640.3454 680.6273 640.4037 678.9116 641.1402 673.4109 641.3102 669.6522 640.5999 667.1764 640.7034 665.5559 642.0909 661.4878 641.4668 658.3438 642.0556 650.2986 646.6641 647.2643 647.2982 645.4927 648.589 637.1782 649.3671 634.0419 650.188 628.8624 650.4399 626.6482 651.2007 623.9955 651.0285 622.2695 649.9931 617.9968 649.402 615.1747 650.1258 610.5166 649.7225 603.7034 648.2539 598.0125 648.5617 594.1954 651.1986 594.6609 653.5014 592.1351 653.8202 590.4366 657.4295 589.132 657.386 586.4065 660.2309 582.8467 660.2411 578.0329 659.3302 576.638 658.3511 569.965 659.0881 563.0905 662.5093 558.7296 664.3261 557.6657 666.7381 552.7413 666.9995 549.9686 664.5033 550.478 662.5023 547.3838 660.2825 541.7738 658.7187 531.9564 658.5131 524.2372 659.5109 520.1778 661.9743 514.3536 663.2969 509.2957 663.6056 507.2382 664.5062 504.3217 662.6389 497.496 659.9805 493.9682 654.7086 488.3313 653.439 487.1378 651.9305 481.3824 650.4337 481.1534 648.4875 477.5147 644.5481 474.6555 645.4785 472.3943 645.3562 466.5804 647.9878 465.5201 647.7512 462.9361 649.8089 458.2869 650.5806 453.1773 648.812 452.6335 647.5588 450.1591 646.2491 446.835 645.3642 444.7188 646.3256 439.5464 645.7346 436.477 643.752 431.5425 648.0175 429.8514 647.0199 430.184 644.6421 427.6763 641.907 423.884 639.4193 422.2331 639.8584 416.4219 636.3096 415.6267 634.828 411.7088 633.592 408.4952 634.1272 403.7246 633.0571 398.136 630.9395 396.2481 631.1731 391.9709 627.9355 389.7833 627.0989 388.28 627.7102 385.4022 627.0389 383.6938 625.5623 376.2931 621.697 373.6206 622.407 370.3756 618.5576 364.9419 617.3626 361.5769 617.8823 360.291 616.8109 356.6298 616.5113 352.9558 617.7332 349.839 616.8439 348.3236 618.2487 345.5825 619.0841 344.5604 616.0234 341.9748 613.7958 339.5066 609.4462 334.5047 608.9024 333.2821 609.7232 328.1006 609.9061 320.941 607.6041 318.3782 606.2864 313.6575 605.2231 309.3461 600.9919 309.4851 599.8674 306.6814 597.0653 307.8021 593.1482 300.4204 588.8441 297.0744 588.278 293.4632 588.7926 283.7672 586.724 282.663 587.0944 278.1818 586.1393 275.4793 586.0808 270.2392 584.1817 263.1163 580.3118 257.1055 576.0716 251.9295 570.8837 250.7146 568.8251 250.273 565.737 248.2243 562.0109 240.6195 555.2773 236.0468 550.8145 234.6799 548.1348 230.0197 544.964 223.1398 541.4434 218.3911 539.3535 210.7492 536.6253 196.2825 533.4648 193.8751 532.4765 188.3536 531.4779 183.2184 531.5089 176.3496 529.8101 169.6572 529.11 162.9501 527.8468 162.0251 528.8033 159.288 527.7226 157.7368 525.271 154.1565 523.8984 151.6323 520.8263 149.9559 516.862 152.8386 514.028 152.3362 511.5182 149.1103 507.4397 149.2414 502.06 148.1778 499.7833 145.4105 497.1797 138.6304 492.4509 134.564 490.6486 135.6767 489.4561 134.9836 486.7505 132.5716 484.2746 128.0773 481.2275 125.7896 481.3787 124.054 477.8867 122.6799 478.214 122.3187 475.1582 118.5441 473.4138 117.9854 472.2424 113.7193 470.5418 111.6877 470.6619 108.9486 468.4396 107.1393 468.0617 102.5959 463.8225 99.5292 462.321 99.7255 460.2049 98.3906 458.9435 98.9536 455.9674 97.4585 452.1988 95.1301 449.7264 92.7791 445.2449 91.3985 439.9869 90.3043 439.1221 90.8772 436.111 89.7674 432.9756 88.1226 432.191 83.6043 426.0209 85.6783 425.3895 86.7058 423.3798 86.4336 420.4607 88.4777 418.6476 89.1917 413.8757 91.5159 405.9637 91.4751 402.9991 92.275 401.3191 91.3327 397.5058 91.4835 391.4279 90.8282 386.2328 90.3954 379.3887 92.3103 376.1872 91.2967 372.7115 83.5464 363.3269 81.2435 362.7244 76.9155 359.7656 75.2883 360.0747 72.2487 359.0431 73.088 355.3925 71.4945 353.566 71.7226 350.5603 70.8248 342.5189 71.8768 340.3587 70.0711 334.698 67.5437 333.0071 67.0551 330.6915 64.3342 329.2299 62.6219 329.5521 61.274 327.2328 58.2288 324.7452 56.6403 321.2762 52.7439 317.6784 51.7321 315.4272 49.1135 313.0033 48.3331 310.635 50.2944 308.758 49.0834 307.2884 41.5 302.8251 39.1851 298.4258 36.3552 296.8317 30.3229 292.6625 23.8158 287.6208 19.3326 283.4705 15.6401 278.5313 14.046 275.1629 10.9063 272.1234 7.4117 267.7831 6.422 265.2803 5.879 258.1189 7.5476 247.9712 7.8623 241.2903 8.9037 237.9046 10.5992 236.1516 10.2806 234.3385 7.1156 230.5561 2.8888 222.8388 1 216.3893 Z" id="04"/>
  </g>
</svg>
