<?xml version="1.0"?>
<svg xmlns="http://www.w3.org/2000/svg" version="1.2" baseProfile="tiny" width="800" height="937" viewBox="0 0 800 937" stroke-linecap="round" stroke-linejoin="round">
  <g id="Martinique">
    <path d="M 1 108.3828 3.4446 104.6078 3.7647 101.7661 6.3442 96.925 7.1549 90.0389 11.8708 85.973 12.7532 79.5524 15.8668 74.6126 20.7131 69.3645 20.3199 64.6317 23.9043 61.1839 26.3157 61.5258 30.107 58.0357 30.3457 54.6941 35.1518 43.4235 42.1874 35.7294 45.9002 33.2375 48.8973 33.9466 55.6116 32.5462 59.401 30.0853 65.0127 28.3121 69.8683 23.2107 74.3964 22.8682 80.2836 20.7606 82.2514 17.5881 85.2111 17.6949 89.5122 15.6106 91.0557 10.7301 93.4656 8.0854 102.946 10.1289 111.0012 6.4327 118.1883 5.8314 121.2181 4.0757 137.0107 3.308 144.0477 4.5053 155.2437 1.0005 158.4999 3.9983 163.7058 4.5857 169.2805 3.0509 173.2159 3.3055 180.3031 8.9495 182.8172 8.2504 191.8555 8.6433 198.387 10.6257 208.0803 17.4714 213.3959 19.2829 217.6524 17.0941 221.1498 17.3647 222.3479 19.4375 229.7263 23.9197 235.3112 23.8374 241.699 29.8776 250.0924 30.6064 252.6032 35.9836 263.1597 47.4595 267.4913 49.6593 276.1588 50.4289 281.4086 52.0642 284.7954 54.4549 286.576 59.6908 292.6831 64.1054 297.6423 64.4855 299.0371 67.0993 305.0613 68.0556 313.7789 68.5132 315.7381 70.997 316.6653 75.5331 320.0331 80.7201 325.1716 83.1894 331.8541 87.6142 336.4416 88.96 344.6633 88.2432 350.5201 83.7476 355.9342 80.7016 356.9258 83.1669 362.2514 87.9628 361.5824 89.8324 366.41 93.5497 377.501 92.0309 382.1596 93.5477 381.9784 98.8537 377.3312 103.746 378.0894 107.5052 383.2722 107.9413 388.8841 107.3794 394.1944 109.7457 397.8947 116.5577 397.9603 126.6659 402.3916 132.7523 407.743 137.1027 414.0784 138.3659 420.3842 135.8852 422.3359 133.2208 427.4735 136.3003 433.3326 134.387 434.8864 136.9394 431.1124 140.844 431.3958 146.4484 428.5963 146.9427 427.6592 149.543 430.646 156.7342 433.1554 159.1017 440.3624 163.1624 440.2531 168.7819 443.0552 175.3387 449.2813 178.4375 454.9429 178.9948 454.7824 183.2669 457.5767 189.0436 463.7645 194.0839 466.6262 192.2655 471.6703 192.5595 473.6189 191.2943 475.3946 198.053 472.22 197.2966 470.0868 199.8044 475.1404 205.3463 476.6202 208.3651 481.2606 211.5847 483.675 210.7291 486.9953 212.4349 485.6459 216.162 488.4615 221.3462 492.9653 223.7189 495.0696 227.0651 498.0763 226.2613 502.1426 233.455 502.3008 235.6828 499.4735 239.3014 504.4168 249.5405 509.5079 253.5489 507.1212 255.0978 509.4036 262.625 508.7754 266.3811 512.6674 270.4008 515.2416 270.0965 518.1698 273.007 520.5273 273.4643 525.0314 269.8158 528.1455 260.5628 527.7378 257.5964 529.0444 249.5538 534.3317 243.8631 537.4854 242.9501 538.2005 239.8563 542.0502 238.2968 542.9057 232.6924 547.6398 234.0573 551.2003 232.196 560.2525 229.2997 561.2431 225.7973 565.6125 225.9992 567.7869 223.2369 571.7114 222.8871 580.8904 223.9859 582.7175 227.5742 585.8368 230.497 591.096 230.0267 596.3948 225.8565 603.7773 224.0854 607.2845 221.3618 607.1164 217.7955 611.9536 214.5833 613.701 216.9031 622.4656 215.3228 625.763 212.82 626.6713 209.1202 633.9191 208.217 634.0027 206.6078 644.0639 201.425 644.3577 198.5296 649.5928 192.2791 650.5702 189.5084 655.6356 189.2419 657.0496 196.3911 661.3373 195.1523 668.7509 197.1482 670.7206 198.7928 676.826 199.2928 675.5835 204.258 679.7305 204.8907 676.7883 210.1616 679.5348 211.7135 674.2789 215.1065 674.8184 220.5532 680.8806 227.226 679.9574 230.618 677.5379 231.0206 671.6113 229.0177 668.9845 230.3042 665.3954 227.5581 661.3754 221.4117 662.5698 215.3475 659.0728 212.92 656.5474 216.2214 652.2904 217.0178 648.5356 214.4588 645.7482 214.985 641.8283 217.5735 640.8471 219.6194 641.2601 224.8649 635.6304 223.6524 634.2435 228.7279 636.1425 231.7686 639.4263 233.2744 646.698 234.7872 647.8437 239.0137 650.3975 240.0661 648.3946 245.1669 648.5568 247.7809 645.9864 250.9309 641.1101 247.8189 637.177 249.8656 637.0032 253.7371 633.9482 252.8922 631.4224 255.1709 630.1242 259.3152 631.5502 261.9607 639.1554 261.8743 644.9408 264.0476 646.0159 265.821 640.7978 271.828 636.7671 271.2233 635.8567 275.184 628.9798 276.1321 626.4164 275.0099 624.4589 271.5296 619.7615 271.4702 615.7024 272.7613 613.306 275.9232 607.9647 273.3484 608.1866 264.7292 606.5569 259.0345 603.9368 256.3615 598.3349 254.6046 596.0732 252.5956 591.0103 253.1122 586.1709 248.8724 583.0318 247.9103 580.1815 245.0992 573.399 245.7384 570.0642 247.9753 565.1478 247.9154 564.4199 245.4554 558.418 246.3405 555.8646 249.3522 555.3483 254.3584 551.3581 258.8924 547.4719 258.6087 545.8757 260.1092 543.6634 266.485 544.1131 270.2343 546.9792 273.6003 554.5109 278.277 548.7555 279.6032 546.074 277.0832 543.9105 279.6735 541.0086 286.464 541.3375 293.1553 544.1266 298.8319 549.7243 302.1976 552.9319 301.4044 552.8452 304.6631 556.0154 309.141 558.7063 311.1937 563.7965 312.4319 566.2477 311.2711 566.4054 306.6088 569.9867 303.0967 570.6182 300.7869 575.2862 301.4635 578.8861 299.7571 581.0362 301.7517 578.9464 303.9541 575.5991 303.0748 572.5626 308.0335 574.4211 312.9801 564.5517 318.9362 563.9871 324.2309 567.8558 328.6821 574.8125 328.3825 580.5465 326.4204 585.1344 322.693 589.4613 322.8774 592.2093 319.7391 595.1053 311.5495 598.7209 313.8582 602.5698 311.4306 601.5244 320.1501 599.2831 323.2414 599.6971 325.594 603.7612 328.4714 599.8489 330.98 599.9575 334.0344 602.0432 336.8967 610.7485 342.622 614.3491 342.6895 623.5541 338.6225 622.3412 342.462 627.1319 344.841 624.4561 346.8162 625.9135 350.3687 622.0105 351.2909 617.41 349.7744 614.3156 353.2236 606.7776 365.5596 604.9635 364.2578 605.3859 358.2559 603.0681 357.8365 597.6962 359.1403 592.9648 359.1088 590.3174 362.7717 584.4267 364.5559 580.5061 363.2163 575.7504 365.6269 572.9511 369.291 572.873 373.9462 579.2897 381.6376 571.0933 382.6947 564.0659 374.7434 560.0632 374.2726 556.5104 379.5279 557.2049 382.7375 555.6153 389.9287 553.1571 390.693 550.347 394.3883 547.3757 394.3065 547.1158 401.0458 548.3416 403.9584 552.1391 404.8676 553.838 408.4836 561.5897 409.2892 562.8063 417.7868 566.7726 424.4948 569.8803 426.3109 571.509 430.4457 581.644 431.1006 583.3981 427.9961 587.911 427.2299 591.2502 428.21 590.4382 422.4766 593.1532 420.4984 595.0878 416.5535 597.8846 416.2601 598.3499 411.5588 602.4634 409.1595 608.6458 407.1866 608.2766 410.6293 612.2905 413.8696 617.1924 409.1991 618.0881 405.7108 622.3228 406.835 621.208 410.4408 626.6729 414.2091 627.8302 408.9993 632.621 408.3052 630.7466 417.2906 633.5774 416.1289 638.1096 416.0808 640.4254 420.6679 645.8008 419.2881 644.8288 414.5718 645.5191 409.0419 650.1187 406.8113 658.6572 406.8481 662.4023 410.7662 659.8867 415.6108 659.801 419.5951 656.7208 418.5876 654.9059 422.1364 657.6024 424.7834 654.4903 432.0863 651.581 428.0571 649.277 430.365 647.6144 436.2473 644.9856 434.8062 640.5096 437.5434 638.5971 436.6595 635.4105 440.4899 632.6593 439.6622 631.9947 433.2102 627.2378 434.4649 624.1582 432.1067 621.3475 433.4038 624.836 436.304 622.1115 440.1493 617.1983 441.1038 616.5319 445.9548 620.123 446.8308 622.7815 445.5498 628.8072 446.0943 632.0113 448.0929 636.9768 454.4036 640.3101 454.981 647.6259 450.8262 650.3089 454.1653 641.3619 455.0925 637.8715 458.9349 640.6096 461.4373 639.8996 464.1975 643.5843 467.363 645.4587 470.7215 644.6843 474.4706 641.8478 472.8882 638.4419 478.9768 635.5904 477.7296 633.3391 479.8935 633.6924 486.6709 630.3775 488.9659 631.5738 494.2311 635.911 493.0762 639.4792 495.7451 642.5291 494.4421 649.2063 496.1804 650.9105 490.8377 652.5928 491.7023 654.1123 497.1566 652.9184 502.4128 656.3956 501.5067 656.7921 498.2832 660.113 495.1228 666.5863 498.8899 667.5589 494.5908 673.4675 491.7111 676.0122 494.1605 675.3496 496.043 682.4396 497.0118 684.2973 498.7983 677.5931 502.8708 674.0439 501.3162 673.863 505.9001 666.4795 509.0438 667.9576 512.9618 674.6294 513.2784 676.6186 518.2677 679.8996 518.5593 683.1827 520.7849 686.1145 521.1593 687.589 523.684 687.3251 531.0824 683.5194 530.4111 680.5251 537.3192 681.0868 540.3261 683.387 541.2486 685.4295 544.9082 689.5564 545.6099 688.1803 548.6477 689.345 551.3194 694.4726 554.5267 697.7449 554.7636 699.7829 552.4229 704.6272 553.88 709.9246 557.2869 709.1955 553.167 712.5958 548.1498 716.8691 547.5386 720.7436 544.7413 720.9758 548.2167 723.1736 549.1236 725.5267 555.3485 722.8829 558.5285 723.1078 560.6995 727.033 564.056 730.8358 562.2797 731.5339 566.0104 723.3077 565.356 719.5742 569.6191 733.5077 572.9192 732.3838 575.5119 729.0217 578.0075 726.0635 578.0664 720.7272 576.3833 716.9661 578.9994 719.6386 587.1225 718.9052 590.9044 721.3279 592.9291 727.5844 589.3408 729.5892 591.4171 733.5916 588.4828 736.2984 588.9947 733.1134 593.1056 730.1487 593.4275 726.4506 595.9059 725.7447 599.9588 732.3447 599.7598 738.0282 596.1511 741.3704 595.9952 741.904 601.5005 737.5503 605.4339 732.6507 605.539 729.2645 608.0932 730.8452 612.1549 733.6406 614.251 742.7929 610.2765 745.4396 605.426 749.632 601.369 756.4829 597.4525 760.5657 591.6353 767.7519 593.253 765.8243 597.8707 762.0863 600.6431 762.5429 603.0088 760.0696 611.1224 758.0577 611.3219 755.5534 615.8163 751.1296 615.9129 749.5402 619.821 750.5323 625.8233 746.9624 626.1834 745.9369 629.3411 748.3658 633.094 752.4811 636.351 754.1284 634.5448 757.9125 636.782 761.4788 641.9083 763.4533 642.5731 765.5806 647.5812 767.5854 649.3859 767.8784 653.9304 761.2835 654.7935 759.1757 653.5643 755.2372 653.8442 750.6094 658.173 746.7196 658.5755 749.437 662.2376 755.0947 660.9501 757.2503 664.059 761.8769 662.9665 766.0689 664.4464 769.2041 668.56 764.18 670.2028 759.0991 676.2215 752.3306 679.7308 751.0664 686.8106 755.3585 687.3861 756.1341 689.8451 750.143 691.4011 751.9965 695.2217 749.3042 696.7068 748.394 699.5154 752.5837 704.6038 761.0546 704.1263 761.1426 702.3492 765.6877 702.2566 766.9351 699.8633 772.1783 695.5656 774.6171 699.0387 776.321 703.799 776.0434 708.1816 773.5765 712.5481 773.4574 716.4467 776.7661 718.2179 774.8971 721.4632 774.0156 725.8778 774.365 730.3691 775.8308 734.6489 779.235 737.1782 785.6805 736.9473 790.0874 737.5639 792.4267 743.4645 790.9882 748.9938 795.5576 757.2449 799 761.242 796.8427 767.0747 794.2713 768.5589 793.5711 773.4534 787.402 773.7312 781.4361 768.58 776.883 768.5722 775.3726 770.2068 778.4174 775.0326 773.1299 777.6066 777.0996 779.9702 782.7454 781.2438 783.4963 785.8821 787.3832 789.0789 788.5473 792.1461 792.9726 799.43 798.6981 799.8883 798.8694 801.54 790.0062 799.1194 778.6075 807.5379 777.68 813.9439 774.3981 814.3437 773.8991 820.7798 776.315 824.9202 774.1114 828.9352 772.1875 835.7158 772.5922 837.7502 770.224 844.0227 768.0748 847.329 763.6582 846.4129 759.7724 848.8761 759.4966 850.6656 753.923 852.6183 754.5866 855.5826 757.1577 857.8419 754.6289 862.3643 751.6111 864.2573 754.1632 868.2834 752.1439 870.2048 744.8959 872.6414 742.4873 870.4617 740.9874 865.565 738.5668 863.159 732.6984 861.5705 726.4518 862.5936 726.7342 867.2319 724.7577 871.7614 729.6381 873.0104 728.8444 877.4468 734.2561 874.5348 737.1919 875.7637 733.2709 883.0536 734.222 885.4815 742.3077 885.2471 746.9956 887.1028 745.1826 893.5841 739.7796 893.349 736.5282 889.3029 731.6223 888.5457 725.3487 893.566 722.9489 899.8935 718.598 901.3762 717.2382 905.4592 714.8355 906.2639 714.8461 910.4169 712.7142 911.5733 713.2353 919.7038 709.7954 918.5562 701.9469 920.5477 700.4291 922.5727 693.8422 920.5912 689.0028 924.442 681.3554 920.9914 678.046 921.4039 670.8193 919.4801 674.6272 917.0939 672.8824 910.9852 666.5938 906.4987 657.7283 904.1021 658.6382 900.6836 656.5856 897.1774 657.2775 890.4328 655.5486 887.0151 647.214 881.8612 641.2587 877.3535 642.3865 873.6873 644.9064 873.762 648.0774 871.5454 649.1242 869.0272 655.4053 863.1497 656.2707 858.2093 658.1504 853.8753 663.7206 848.422 665.1029 842.8595 667.0798 840.7385 665.1636 832.9798 660.9821 828.4508 658.3971 823.9101 660.7576 815.6601 663.3027 817.4766 667.1099 823.2674 669.6737 825.2618 672.5018 824.7868 673.1784 821.7928 676.9267 821.2876 680.8517 823.1539 677.8469 813.5792 680.1694 810.3688 685.3779 807.4806 689.2663 809.4198 688.7874 811.9557 691.6469 813.6958 695.9048 813.2825 698.5384 814.7534 700.8146 809.5937 703.2731 809.7917 703.9863 804.5764 699.7312 805.6208 696.2968 803.703 693.2288 805.4773 690.2403 803.3616 695.9527 798.6228 701.3621 798.9651 701.1316 794.5672 703.9882 791.9841 705.2385 788.5049 704.7024 785.0199 698.4337 787.3945 694.0713 782.245 693.1049 779.6377 689.693 781.136 686.3277 780.9373 681.4636 782.8004 678.4031 781.6638 676.3707 778.2069 673.406 778.195 671.7537 780.1321 672.5465 782.8597 670.2987 785.6204 663.0712 787.3324 659.8397 788.8865 656.5546 793.2481 651.1024 798.5096 648.9777 802.2653 646.1641 802.4743 644.7532 806.0788 642.4067 807.9562 642.7786 813.9772 633.5478 819.5396 630.648 823.2395 627.7198 821.412 628.9044 816.5134 626.4949 814.1541 617.8662 809.2942 610.3873 800.1898 606.485 798.7115 605.3242 795.9759 606.7487 792.4409 607.0199 783.5843 596.9 784.2584 595.0799 782.1029 592.5073 786.0998 588.9756 784.9396 583.8496 786.5834 582.1896 788.5373 577.5613 789.0728 575.1558 791.6597 572.21 791.6892 567.6248 794.8154 563.2875 795.2897 560.7611 791.5458 555.5082 790.6172 549.77 792.4021 549.6285 790.0483 545.5944 787.8399 541.4746 786.9212 530.4042 786.9773 522.8595 790.1167 520.3645 785.6074 513.9479 784.5403 511.4596 783.1492 510.2992 778.6983 507.3595 774.3699 507.9171 770.8495 504.6089 766.9836 501.2787 765.713 495.9074 768.0915 496.2648 769.8432 501.822 773.4528 497.7556 773.9868 495.3232 772.7947 493.1411 775.0316 496.066 778.2785 496.265 780.3324 488.3608 784.6655 482.8411 782.7538 479.1038 777.9996 483.1598 774.5092 484.4619 770.6107 483.6564 767.1527 480.3312 764.939 479.8049 761.9009 475.154 756.2228 470.0125 752.3638 467.1374 747.9034 466.2794 753.3666 469.9808 757.2547 469.3149 761.8262 464.4018 762.46 467.0248 765.8491 466.558 769.3565 467.5879 774.0339 464.5253 775.4408 460.6885 771.2966 460.4979 768.8786 454.0497 762.5871 452.9297 766.5407 453.5821 769.5524 456.866 771.6449 457.2899 776.6173 456.1864 779.9347 457.8273 784.5483 454.7462 787.8248 452.0968 786.7708 448.4301 783.1884 443.0204 784.1822 440.0545 782.5136 437.2142 779.0969 437.7545 775.0467 434.2137 770.0083 432.6957 765.468 429.3018 763.3887 427.6657 759.1872 422.3691 758.7767 423.3278 762.5582 425.9901 763.1724 424.2022 767.4638 424.9 769.5685 422.6483 777.644 415.9788 771.8436 409.1843 767.8566 406.4792 763.2161 403.5789 760.8793 397.8889 760.6156 390.7326 762.3876 369.2753 769.6587 359.0344 774.6392 353.4983 779.607 349.6971 784.398 348.4587 787.3226 349.9054 792.3591 347.9121 795.5691 347.4743 799.547 345.1811 803.2136 341.2939 806.4533 336.1897 808.3623 332.1544 811.6644 325.5091 811.0234 318.717 808.2901 314.1731 804.7754 310.5003 800.2962 309.2539 789.1108 305.1509 784.2628 301.1655 782.404 296.9664 783.106 293.5323 785.1738 290.2107 785.3176 285.3972 783.2239 281.4116 778.3044 280.489 772.9742 281.9462 771.8346 281.4184 767.6333 286.1017 765.7004 287.1999 763.0117 285.4546 753.1252 286.7584 746.3453 285.1197 742.6123 279.1398 738.8699 274.673 740.9066 265.8242 737.749 267.927 733.5142 267.1446 727.9386 270.1307 726.9494 273.6679 728.0409 277.4457 726.7503 277.8759 720.7596 275.0971 713.336 272.3999 711.0616 264.1198 708.5867 261.5158 710.3583 253.9173 711.4951 246.7387 710.1117 245.4702 707.8869 247.9574 703.4151 252.0956 701.0782 253.621 697.5513 252.5931 688.7413 253.5412 686.2257 257.815 681.9773 258.2983 676.4832 260.5548 675.1205 266.4716 675.5208 270.9877 671.8711 271.7423 669.8832 268.7623 665.8481 271.2716 662.4423 271.0403 658.4395 284.7166 652.5282 288.802 645.2575 294.0519 643.5308 296.1439 645.8597 303.2561 646.0586 308.0344 648.1854 311.0088 647.3701 315.7938 642.5412 314.2251 639.86 322.0929 629.7832 320.9529 627.6588 326.7372 625.431 328.3047 627.6445 333.5789 626.7754 336.4353 623.5754 337.2612 620.534 334.8856 615.1053 337.0552 611.9866 341.1395 612.1673 344.5365 610.4132 343.6446 616.4975 341.0874 617.91 342.3448 620.8684 339.1147 625.2693 341.474 626.5104 349.3503 623.7858 355.8062 623.6912 361.7538 615.9897 364.6234 615.73 366.61 618.2133 366.472 623.3039 364.7764 629.9247 361.5325 632.5913 354.8259 633.0317 357.5625 641.1476 360.1797 644.7349 368.179 644.1269 370.9146 647.3507 372.9763 643.5041 376.8543 645.8815 380.7991 646.1563 376.4239 652.2897 377.0661 653.6992 385.2446 653.0404 387.747 656.2242 390.9773 650.9611 394.2434 648.191 397.5376 650.1941 398.968 648.2586 403.5589 649.2264 405.289 651.7345 403.9677 654.5695 411.6839 657.8066 414.5136 656.2308 413.2024 652.1943 415.7295 651.5376 417.2466 647.3814 421.169 643.7432 426.4409 646.0366 426.3297 649.2785 419.9949 655.7715 418.7163 658.8443 425.2939 658.8397 425.0869 664.3569 429.3629 662.0753 434.4073 660.9613 437.0955 663.5004 443.568 663.1418 443.1734 658.0368 446.9164 652.4914 448.4758 656.9647 446.7743 659.0146 449.6107 664.1352 453.6014 664.6661 460.7238 667.7901 462.2943 664.544 461.1468 660.9297 461.7875 657.5877 457.3668 654.3144 462.6802 652.8095 465.5942 656.7496 466.9453 653.7309 465.5395 651.0697 471.2745 644.4535 476.6596 642.4838 476.961 639.6856 472.7983 638.0078 462.8043 643.413 460.4734 639.3158 458.1941 637.782 460.8811 634.7524 466.4299 634.8329 470.1975 633.6617 469.8624 628.0796 472.631 628.7537 475.7686 625.8385 482.1569 624.0931 482.7715 619.1988 474.2606 616.3209 468.3603 612.0568 463.1029 613.3792 465.5214 608.3727 465.0952 604.4317 457.665 603.1638 456.0411 601.5184 453.56 594.2811 449.9364 594.5466 450.7366 587.6636 455.9835 583.4418 454.7059 580.8837 450.1849 581.181 446.6318 585.7882 445.5392 588.7986 442.0089 592.6608 442.3999 597.5725 438.1152 596.3994 433.3504 603.9419 432.3004 598.6985 427.5643 598.898 430.1597 593.8668 429.4868 590.3686 431.0547 583.1229 433.4741 582.3209 436.9894 577.5806 433.6157 576.8343 431.7528 578.3206 431.0304 570.3051 425.2939 567.7656 422.695 564.8685 420.2917 566.214 415.3628 561.8276 418.9634 560.4043 420.163 554.537 413.5261 555.6634 411.8546 555.1439 404.9932 556.4445 403.7951 558.9955 400.9386 560.5475 397.2407 564.5762 393.2355 563.9488 391.4403 561.2346 393.0481 558.1679 392.21 551.9192 394.0383 548.175 396.1994 551.1528 410.2427 548.7697 411.9146 547.0782 415.1286 547.9006 418.3064 545.4632 422.6765 546.237 426.1748 543.2055 425.4961 538.1982 426.621 536.9125 431.5307 536.3786 431.4834 528.8725 429.3542 530.0081 422.7797 528.115 419.2579 529.4147 415.327 526.0093 419.0371 522.8729 419.5814 518.6175 424.2756 507.4389 426.3187 506.432 425.5684 498.361 422.6818 500.6508 416.4442 507.8617 412.2828 508.7887 408.6985 504.4259 406.4391 505.1051 401.1133 501.4516 395.9326 501.3887 395.7945 503.7658 392.1588 504.9095 390.819 509.046 388.3584 509.8461 386.4352 516.1042 382.2075 516.9532 379.6884 519.1551 372.6521 520.734 371.5913 519.4074 372.9345 514.8569 371.5843 513.4313 367.9321 515.8306 366.5798 522.423 361.7933 521.417 360.8377 525.393 363.0415 527.2033 363.3643 532.1233 366.587 539.9598 364.5949 542.4662 358.4395 534.7464 355.3247 537.1003 356.4873 543.1822 349.5699 544.6375 348.1179 551.1314 342.6873 551.995 341.1318 544.234 344.8076 543.2868 345.7271 539.14 342.0163 536.9543 335.0009 537.3601 332.0321 540.5969 332.2679 542.6625 322.5165 543.1962 323.5641 540.096 321.62 538.5734 326.4206 529.5801 324.9074 528.656 314.6495 530.2592 312.8627 538.0306 310.9968 537.3703 309.1822 529.9489 305.2062 528.5233 301.1458 528.4047 298.709 530.444 289.7635 531.2383 284.9407 532.6663 282.9417 531.899 277.1391 534.6852 273.1727 532.7643 268.1131 533.0354 261.8806 530.6572 258.5134 525.801 255.5387 523.4755 252.908 519.4714 250.3215 513.2888 250.4037 511.1171 247.2588 508.6591 244.3121 503.8465 241.5648 504.1197 240.5982 499.7358 234.816 492.3703 228.271 488.9017 225.8303 486.4046 226.541 484.2398 221.6526 481.433 211.9161 478.9384 209.5536 475.5706 203.403 477.4748 202.2899 475.2851 194.6801 471.3238 191.1677 471.7632 190.0223 469.6855 185.9296 468.6335 183.3129 470.2278 179.6444 469.802 178.4909 466.5147 172.7279 458.0614 174.6035 456.571 173.2697 452.7163 167.4253 447.2496 164.7966 446.9854 158.991 443.0921 154.2475 442.8663 150.6923 441.0885 147.3512 438.0139 148.2113 435.4224 147.1742 430.1452 143.2167 425.1127 139.3359 425.2792 135.955 415.9489 136.1898 413.2388 133.8099 409.3474 129.1087 405.6704 124.9227 397.9868 124.2042 393.8647 119.1841 391.1734 115.0664 383.8874 113.6968 379.9448 107.1269 372.4878 106.612 369.733 103.0221 366.6089 95.2711 351.5102 89.6756 339.0157 86.7961 330.4828 85.6804 325.0472 86.7289 316.4147 90.5792 304.0267 91.1688 296.8766 95.3223 285.8464 95.0313 282.5176 96.3266 278.3723 98.8588 275.1859 100.8967 269.8362 101.0145 255.6388 96.4681 251.0055 95.5147 246.6438 92.2556 242.4928 88.4752 239.2287 85.4208 234.0192 82.3994 230.8266 75.9126 226.67 72.4123 223.6025 71.6589 220.8089 67.2324 219.7245 59.3907 213.7584 58.0455 208.9267 51.6968 200.3276 50.5141 194.648 45.7592 189.1675 42.0023 187.6649 29.2594 185.5961 25.7715 179.2628 20.4534 172.2602 17.2591 165.0004 14.1379 155.5576 12.2544 152.8163 8.5236 150.2665 5.2253 146.4961 5.4887 140.7167 7.0869 137.7771 2.9155 133.1141 1.1859 126.8885 1.7226 120.2694 1.268 114.9885 2.3247 111.2078 1 108.3828 Z M 631.2988 347.9116 638.0392 350.8692 640.0392 348.0494 643.6233 350.7422 651.0193 348.3298 660.2691 352.9463 662.3538 352.4735 666.315 354.7831 666.5008 358.4519 660.9011 355.592 653.3701 358.6897 647.2236 362.0156 644.2935 359.0464 643.8003 355.3367 637.8992 353.9761 631.2988 347.9116 Z M 700.7476 517.2328 702.8588 514.3954 707.0893 513.1594 713.5137 508.0393 719.3898 505.0721 721.0437 505.7 717.5696 511.7251 711.6912 511.2864 709.3124 514.9331 702.7264 515.7858 700.7476 517.2328 Z M 419.4875 570.241 422.4464 569.6902 428.3556 571.9309 427.7209 580.6887 425.1493 582.0653 427.9824 586.4512 425.554 587.0497 421.2841 582.8327 420.7375 580.4305 425.9748 576.269 421.8979 573.7954 419.4875 570.241 Z M 761.8059 855.6809 763.4122 853.5235 771.5434 854.8187 770.1963 859.2633 764.8352 859.8642 761.8059 855.6809 Z M 396.6917 632.6122 397.8675 629.8969 406.2813 628.2489 407.3361 631.4737 398.4425 634.8432 396.6917 632.6122 Z M 455.5128 174.7205 461.8932 172.9661 460.6485 176.6847 455.5128 174.7205 Z M 696.0396 496.7776 701.5019 494.5415 703.8182 497.3486 697.8419 498.1765 696.0396 496.7776 Z M 723.1331 485.2069 729.2517 481.0662 730.8116 486.5264 725.9049 487.7938 723.1331 485.2069 Z M 504.6277 198.6788 506.4116 197.8118 509.2069 201.0154 507.0945 203.6525 504.6277 198.6788 Z M 360.4957 831.412 362.9573 829.5213 366.0291 830.9909 363.9794 834.1449 360.4957 831.412 Z M 765.5725 680.3357 767.9483 681.8271 768.3023 677.5845 767.7292 672.7489 770.5112 674.439 769.7004 682.3955 767.3231 682.3165 765.5725 680.3357 Z M 647.8334 469.3198 649.7695 466.2281 656.6906 472.8292 652.6269 475.8063 650.3289 473.8674 651.0159 471.0994 647.8334 469.3198 Z M 657.772 360.7816 662.2011 365.57 659.73 367.7049 657.772 360.7816 Z M 624.8377 367.8329 630.4522 366.9643 628.9249 370.4267 624.8377 367.8329 Z M 745.9074 596.299 746.3313 594.8947 751.5921 589.6936 754.0236 593.0306 751.9374 595.5076 745.9074 596.299 Z M 688.2151 932.0147 691.2201 929.1908 692.1961 933.9906 690.4121 935.9995 688.2151 932.0147 Z M 715.6876 482.3958 718.2721 476.9472 720.2075 481.1665 715.6876 482.3958 Z M 607.1256 371.5967 610.3133 365.7198 611.3391 369.4111 609.5578 371.9505 607.1256 371.5967 Z" id="02"/>
  </g>
</svg>
