<?xml version="1.0"?>
<svg xmlns="http://www.w3.org/2000/svg" version="1.2" baseProfile="tiny" width="800" height="1091" viewBox="0 0 800 1091" stroke-linecap="round" stroke-linejoin="round">
  <g id="Mayotte">
    <path d="M 61.4802 242.0844 68.9976 241.923 70.5489 241.038 76.5796 231.4894 81.6107 228.178 84.3236 223.9729 86.0343 218.3622 88.5109 216.166 91.0957 211.5994 90.8335 208.8992 93.6614 207.1744 96.0644 202.152 93.4585 197.7694 93.0873 194.1168 88.555 192.3612 90.7909 188.1837 95.2311 185.1891 95.2627 180.7289 98.0631 179.5527 104.9885 180.9649 105.7333 183.1565 116.8936 182.7873 124.8469 185.6491 130.6973 181.2922 135.4069 181.064 138.4782 178.9904 144.5041 171.9033 146.1519 166.9092 148.8819 165.663 152.2809 159.4117 155.1043 156.9897 156.9354 152.826 157.5412 146.8895 156.4252 140.418 150.2967 134.6735 147.9243 133.8368 144.0763 134.9847 138.2147 130.6179 139.6102 127.6513 143.6478 128.6628 155.5501 133.5357 159.7771 133.6912 163.9441 132.6891 168.3932 133.8343 175.025 130.1203 181.7131 125.0638 185.0801 121.2536 183.7706 114.7957 181.4318 109.2336 183.4949 104.3618 182.188 100.661 184.6371 97.5666 187.9641 98.5298 191.9118 94.713 190.4771 91.9219 191.4825 85.974 192.7894 85.0466 198.4739 85.2427 203.1167 82.8888 205.9956 82.5231 210.4923 79.1079 213.2797 75.844 214.5136 69.4945 211.47 64.028 212.2012 61.1744 216.9627 63.3413 222.5376 63.8856 227.7289 61.3617 229.7029 58.6774 235.1317 57.0543 237.3891 54.9856 238.3853 51.4985 242.8642 48.5045 243.0745 45.4188 246.2551 42.2529 249.7494 43.0854 252.7813 46.1281 247.7494 49.5688 242.4601 51.6878 239.3208 58.7797 238.6112 62.7031 239.2131 68.1162 246.8682 72.4536 244.8891 74.2394 236.7395 74.3755 216.9899 81.8238 208.0342 87.7192 203.5294 88.3801 200.3257 91.8417 199.53 94.3592 200.4975 98.7549 205.8731 102.2268 211.9369 101.3144 216.9469 102.7619 223.4835 103.5065 224.3973 106.9054 226.9131 110.4091 236.3098 111.8251 239.3307 114.353 244.7063 113.6083 241.1479 121.1609 235.396 123.8148 237.6857 131.9335 239.6317 133.7588 250.0651 132.9783 252.5985 131.6552 255.5033 132.5311 256.8823 138.296 258.7099 140.5968 266.6805 141.2519 271.503 146.7218 270.8912 148.1177 265.0115 148.7834 264.4918 155.6044 265.5979 158.3957 270.9169 165.7286 274.5645 168.6371 281.3277 169.5664 290.0221 175.8225 303.6239 181.3285 308.1064 183.8177 314.534 183.8614 316.5495 181.6857 319.4235 181.6201 319.2649 189.7898 319.9908 192.3061 314.8062 191.5624 312.6626 189.4724 308.5186 188.5638 302.0275 192.5212 299.7946 196.0493 300.0737 208.4636 301.8918 212.9449 307.0604 214.705 312.8724 221.4071 316.0433 223.2951 318.166 231.7877 317.4322 236.41 321.8996 242.9821 331.2426 252.2658 326.3357 260.6234 339.4838 256.798 341.6019 260.5474 349.8123 257.9423 354.9033 260.5042 358.1103 260.8035 368.78 259.2482 377.2856 262.6727 374.8785 267.505 374.5485 270.5338 376.4973 275.2301 386.6916 279.1004 397.2847 274.3896 406.9151 262.5704 405.8847 258.5565 408.5596 257.8611 416.6957 253.2039 414.1448 252.2196 412.0806 249.0262 411.9839 245.8009 418.3379 246.8651 421.5633 249.3809 422.7903 242.6023 416.4398 241.0728 412.6433 237.0017 419.9275 229.9604 424.9514 236.3494 431.3783 246.2864 431.0527 249.2883 436.8219 252.4245 439.8844 257.5911 454.4488 261.38 463.0071 261.4545 463.1367 259.7705 468.8743 255.8714 473.9209 257.8288 475.0392 261.8109 478.6931 261.9865 479.4384 259.5296 486.6026 259.9605 489.1235 262.1894 493.0536 263.2899 498.9418 266.9593 505.7671 267.962 510.4604 265.5739 513.5205 268.4304 517.9996 267.3162 518.1066 265.2456 521.0748 263.1059 523.9364 266.2308 526.5242 265.4467 530.8867 267.995 534.6377 271.646 536.1946 278.1004 541.5521 279.7324 547.3155 280.4467 549.3078 276.42 551.733 274.5429 552.6167 270.3867 555.7362 269.9233 558.1695 271.3174 558.2255 275.8331 555.9463 282.2772 550.6297 287.642 552.7896 291.9391 556.0382 296.105 561.4107 298.5211 568.867 296.9033 571.5908 303.4489 578.2817 305.8249 584.4777 305.1752 586.4904 302.3132 589.3603 303.472 592.4312 308.5449 596.1559 312.9246 597.6484 317.3062 600.6279 320.9567 600.6302 323.1476 604.3518 324.6051 605.8433 327.5262 611.0531 328.6162 614.0278 326.4218 617.4836 327.2508 620.6227 332.0088 620.0432 335.425 617.0171 339.9349 618.1344 342.8562 622.9809 351.2513 628.1897 350.8822 630.7987 356.7241 629.6866 359.647 621.5018 361.4792 618.9013 366.9617 621.7728 371.2921 619.7522 372.1198 617.5842 380.7403 621.8667 383.3748 613.7136 388.5069 607.9395 387.609 602.3416 388.6462 599.8997 388.1225 602.9163 382.3166 605.6635 381.0191 610.177 374.1951 607.4939 365.2152 603.6234 360.283 602.4415 361.772 603.41 367.2793 604.9231 368.3759 603.3871 374.4682 601.0424 374.2487 599.7339 378.3293 595.4832 383.3624 594.3438 390.7205 604.515 393.3683 607.1563 395.7771 610.5572 396.1049 610.423 400.6236 608.0602 403.9443 609.3098 407.0208 614.0782 411.3502 622.5957 411.1207 624.5406 412.9563 623.9201 421.6386 618.4631 425.5545 615.3573 424.451 614.0929 420.4919 611.2092 419.4751 607.5935 419.9729 604.2436 421.9629 602.2113 426.1475 598.3196 425.2225 593.9359 426.552 586.9469 431.8907 580.699 438.8475 571.2993 445.6153 568.3501 448.9724 564.8833 449.7806 565.5222 452.6942 563.538 455.3334 564.3464 459.9109 562.8192 468.7379 557.5936 471.0922 545.5569 481.3381 544.903 485.5342 542.0293 486.7054 532.9524 494.8158 533.4354 500.9219 530.0829 506.5624 529.7649 510.6196 527.0281 513.6444 527.9857 518.2406 523.1356 521.9174 517.9207 522.5847 509.6932 526.8707 506.0574 531.6448 502.7469 533.3917 499.5146 541.5944 500.4883 548.7336 503.5691 551.0202 507.0419 550.0435 509.254 551.8216 506.0003 557.8408 500.9677 561.0874 499.4927 564.3196 496.1327 567.9219 493.2838 576.9926 493.5746 581.3058 495.542 582.1603 501.8797 590.1921 502.3362 593.7178 501.0917 600.1424 502.0035 605.8591 505.2426 607.6015 507.7136 614.895 506.2132 616.2805 509.7207 619.6613 512.0771 619.6613 515.354 616.9185 517.5253 617.0515 521.7826 625.4717 523.1815 630.4527 522.6249 632.3053 527.9042 635.7921 530.3233 636.1143 532.2311 638.6121 540.6826 643.1421 545.081 640.232 548.7247 640.5922 552.1956 644.6216 548.8098 648.2647 546.4745 656.3646 544.5283 658.7955 550.7909 667.4497 556.1507 671.0371 559.7922 670.0142 567.8503 666.1679 572.4952 664.93 577.4596 665.7675 578.4556 667.487 577.7957 671.8401 573.4451 676.3695 568.5536 680.2512 565.7821 683.9068 566.3379 686.9669 563.8091 689.0134 561.3616 695.8762 561.483 700.5901 562.7927 702.1839 567.2324 702.6585 565.9191 705.9682 566.8008 708.1917 560.7739 708.8864 551.6388 716.4551 548.2522 720.3098 548.129 724.2367 544.365 722.9351 541.8108 725.0695 537.2494 726.0775 532.1654 728.4982 528.8506 727.9941 524.3501 731.7884 510.9108 737.415 512.3386 743.2308 508.6027 760.6032 512.042 790.3607 515.8581 790.1386 519.1459 792.9267 520.4635 796.3898 525.2682 800.0651 528.8353 803.8767 531.8133 803.5077 538.1009 805.5194 538.7697 808.1275 529.951 805.1635 525.3291 805.3412 519.9163 804.1556 515.1724 804.8079 505.9283 801.3693 501.1098 797.1043 490.8164 795.4293 487.6831 796.2712 481.9814 794.3577 475.8741 798.0894 472.9891 801.7786 471.0887 808.7708 472.7042 811.3861 474.2132 816.8301 469.6977 816.8599 464.3608 819.4235 460.6203 818.9793 455.8739 825.1146 449.1937 837.2072 448.3033 840.7061 448.4334 845.7193 450.1775 849.0018 456.4274 854.6297 458.3968 858.7725 458.7744 867.3163 458.0139 871.9703 453.5793 869.4942 446.5666 867.9588 443.9864 864.9335 436.1788 867.2831 434.1103 869.1616 429.7221 877.4711 428.0266 882.9955 428.2072 888.6586 430.256 893.8431 433.0363 898.2996 437.4663 899.7701 445.0703 906.4492 448.4108 914.0744 448.2936 921.4345 451.0213 929.7682 454.196 933.9065 458.9702 936.4479 464.3053 940.89 466.9023 941.5865 473.4904 945.937 487.702 948.1538 493.1527 956.1016 503.7032 961.9189 507.1878 961.9469 509.0399 959.3748 512.2783 958.1094 526.4916 957.8635 528.1746 960.3423 522.134 965.8529 521.6505 968.0649 518.0668 971.2078 518.0424 976.432 512.5703 976.3181 506.8352 982.1308 506.7761 985.0407 504.228 985.9151 499.3985 990.6265 498.0578 994.1485 494.7432 995.3087 489.125 991.8028 483.8462 989.3981 479.8261 988.7289 475.8211 986.1771 467.6534 986.5713 460.6412 989.7492 457.7692 993.3349 455.1829 1000.4585 452.1601 1005.2723 452.6724 1009.6522 457.1075 1015.3338 447.8173 1017.24 446.4431 1015.6645 446.7428 1010.1973 444.1358 1003.3661 442.7691 997.002 443.6358 991.2609 442.9262 986.0436 440.7134 983.9768 438.6803 978.7658 436.2768 975.2145 436.439 970.1699 430.5766 965.468 425.1941 963.8083 425.2549 962.2082 420.7847 961.2598 412.7716 961.7457 407.8307 963.1565 405.185 962.5637 402.0225 964.3716 401.6026 967.2299 396.4272 969.6759 391.045 975.0696 392.1092 980.0183 393.7818 981.2331 394.4509 986.5671 396.774 989.5145 396.7783 996.089 395.3021 1001.3874 390.1332 1006.5917 390.1745 1009.2393 384.8205 1014.6324 384.5084 1017.1182 381.1528 1023.8569 374.0813 1029.3382 368.2589 1031.4163 356.9832 1029.0043 351.9177 1030.1227 348.0153 1026.1878 346.2244 1020.5559 343.1924 1014.3627 343.4183 1009.4758 333.6799 1005.0966 326.7752 1004.2828 322.7757 1009.3792 321.5271 1012.6183 317.4007 1015.9779 311.3356 1016.0878 306.5224 1018.8623 306.7618 1014.6046 303.2079 1005.0118 306.0328 994.4311 307.2486 994.0917 303.751 987.2817 303.5567 981.8241 288.0255 975.6886 277.1236 977.6272 272.7705 980.3491 266.9127 988.2354 264.058 989.8246 259.4663 1007.3815 259.3342 1010.1749 256.1396 1009.7179 254.2939 1006.5937 248.5466 1000.5041 247.4973 993.2282 251.7167 987.9367 255.2047 980.2305 252.5605 971.5148 253.222 966.2459 249.9477 959.2292 252.4228 954.4019 255.9825 952.2553 258.3241 949.2917 259.7747 931.3942 258.1256 920.8176 244.6758 913.4595 243.0801 916.5461 234.6645 922.9096 235.2361 923.9488 231.3344 930.4592 223.0815 931.4274 210.7252 937.3675 198.7137 929.495 188.4603 923.2382 182.8143 921.3977 177.3952 925.6952 173.7415 925.7833 172.9958 922.2811 181.0761 916.9647 184.4818 915.898 191.0497 910.4659 201.2211 905.6006 206.8068 904.2179 216.913 898.9441 223.538 890.8974 227.5764 885.1581 231.1129 881.6406 233.633 877.5706 235.8265 869.3455 235.51 864.6082 236.559 861.5407 236.1636 855.4945 237.3901 850.4248 240.066 849.59 244.0609 840.8526 242.0515 834.4841 236.3576 825.3561 232.9553 822.3279 227.7322 821.8224 227.4361 819.4086 223.412 820.9523 219.978 820.1611 217.6132 823.6204 208.4419 827.5524 205.5403 829.8979 197.0412 832.7501 195.5161 830.1627 196.4703 827.6648 201.892 824.6329 199.0776 817.114 193.9825 810.0122 187.6967 810.6664 184.3743 808.9423 179.7967 798.0047 177.2755 795.7277 177.6055 793.394 175.2895 785.2332 173.2886 784.4313 172.2592 776.9732 167.9064 764.5086 161.5136 756.1749 156.2628 753.2995 152.4943 753.9459 150.2407 752.1315 151.3765 748.0097 149.6248 745.9161 155.2991 744.6262 160.2724 744.3428 164.0661 742.2673 170.7608 741.4778 175.6883 743.3155 179.937 743.5421 192.4938 740.2065 196.1587 742.2087 205.1594 741.8166 213.1901 740.7121 217.8676 742.4939 224.1442 741.9588 232.1069 744.0152 231.2046 747.5741 232.7694 750.964 240.0584 756.3365 241.6706 760.4416 241.4934 764.1698 238.5957 776.7945 237.5584 778.7815 239.429 781.6846 239.3394 797.6992 242.6233 804.8131 249.4522 810.6344 248.7299 812.7995 251.4438 814.5786 265.1189 817.5136 270.3054 819.6876 275.7105 821.0106 282.3472 825.0476 291.0138 829.1529 298.8981 829.47 302.7822 831.4795 301.9524 835.6316 307.2575 841.0285 322.1379 847.0433 327.8998 848.9442 333.3808 848.9432 358.2952 843.1099 366.3259 834.0436 372.0421 814.2776 372.2287 809.5297 374.0299 801.0986 371.512 795.0933 366.9942 787.4611 366.6383 778.5396 364.3883 772.8188 360.8642 768.6298 353.9882 764.5929 352.0572 761.362 352.928 753.6314 351.6771 752.4246 344.0294 750.8831 341.7944 747.4741 341.5581 736.719 338.3582 720.4689 335.6214 718.2455 326.0121 716.0074 322.5334 716.1027 314.9434 702.5336 307.3716 696.5898 301.1224 696.7529 298.6748 695.7005 297.2757 692.4098 293.3227 689.801 288.7977 682.4065 285.1639 681.7393 283.7804 677.4036 275.9272 665.4192 270.5903 652.7451 268.9765 650.2747 262.9731 644.3917 259.5672 645.1479 254.6868 643.0207 252.1323 643.8287 244.4084 643.2504 239.3834 637.2098 233.5829 636.0314 232.3335 632.7372 224.5261 621.9971 221.1352 619.9143 218.292 616.6603 214.3998 615.7636 211.321 613.7106 210.9559 609.9748 214.5844 606.6688 221.4395 608.9296 226.1966 606.1835 232.096 599.2348 237.1599 592.1635 239.0878 587.2409 249.7878 590.4662 255.7516 587.4402 261.0897 588.9332 266.4264 588.1579 273.2532 588.1974 277.4759 587.0405 279.2895 583.3909 279.4158 574.8622 272.2195 572.0323 266.4149 567.7935 262.1688 568.5579 255.5354 566.72 252.6415 567.4119 246.8611 564.9228 240.6167 564.8985 235.714 562.2518 234.1249 560.2863 236.6466 549.1058 238.2242 548.1495 240.7685 536.2774 242.107 534.7423 242.2394 523.6565 248.5794 519.3571 248.8076 512.4182 247.1503 503.2627 244.7481 498.9632 243.063 488.2411 235.3099 480.4355 233.4464 476.7834 231.9027 468.4335 233.8161 466.5566 236.0467 460.7116 235.301 457.0594 240.5098 453.7684 255.3938 450.4771 255.391 443.902 224.8749 441.7224 224.8648 438.9419 222.5386 434.5379 223.7091 429.459 221.9075 426.9237 217.1106 423.0905 214.8138 419.7266 218.1739 419.185 226.5971 415.0258 232.2836 409.5097 235.9383 409.9666 236.9544 405.6605 234.9636 401.2444 237.2292 400.379 236.2833 390.0113 241.3905 388.7984 241.3009 384.7617 239.1665 378.2001 234.1244 376.3389 235.6447 372.9872 238.655 370.3253 232.8776 365.4541 229.2894 365.009 227.0086 366.2845 222.0518 375.2415 218.485 377.8929 218.3516 379.8326 211.3505 383.3234 209.4967 382.925 207.8637 378.4544 193.5897 367.5852 180.006 362.6236 177.3 362.9797 173.0732 370.157 166.727 368.9605 158.3882 363.3191 153.3989 355.5455 148.9335 354.0858 148.1883 350.4333 136.6226 345.8074 132.3673 342.328 132.5578 338.7494 130.886 335.2537 125.9898 329.5582 119.9652 326.3277 107.8621 327.4835 104.0057 328.6661 102.1741 335.3391 99.6593 338.0356 94.9612 339.8763 91.7582 333.2801 89.4491 331.2914 90.0401 328.6676 87.0367 326.0888 81.9282 326.9441 78.6004 323.4198 72.7765 319.3941 69.0375 310.6082 69.4711 305.8249 79.167 295.2457 78.8823 293.1928 92.3107 289.1081 99.9831 281.6861 102.2426 280.6732 106.4352 271.3484 106.603 265.4589 111.1246 263.2286 113.0146 260.3572 111.657 256.8542 104.6387 246.8594 100.2301 248.4448 94.1925 247.7903 89.9999 245.1727 85.3041 245.3362 67.0546 247.4486 62.7031 246.4846 61.4802 242.0844 Z M 669.277 410.2755 673.7548 407.6669 676.1986 407.7883 680.3039 411.8145 681.7651 418.4984 687.0037 419.412 694.2746 417.2107 694.9682 423.5899 696.3543 427.4573 699.2927 427.4208 703.5651 432.4724 706.5934 432.7727 708.6362 430.4371 708.628 426.3779 713.1451 418.8655 715.9114 418.711 718.3837 411.7932 724.2494 406.3074 726.4762 401.1915 725.9029 397.1786 722.4936 396.605 717.8493 399.3574 718.1431 403.3134 711.4415 404.9761 713.9693 408.5308 712.382 410.2509 703.5641 415.1815 699.4488 415.6401 698.3318 413.5763 707.0775 399.9742 732.29 377.8686 739.6498 370.6221 749.9228 355.394 753.5599 351.0062 755.6172 347.1236 759.7146 349.1156 761.9486 352.7567 763.588 358.0232 769.5329 361.4785 771.0191 365.9897 779.5363 374.6026 782.6336 374.1024 783.0611 394.9884 786.01 396.7445 791.2201 397.4686 794.5741 402.5786 789.9537 407.72 787.7752 408.6048 788.6542 413.7951 791.7966 415.2977 795.1312 412.8453 798.835 414.2235 799 422.2137 796.2752 421.6957 794.3493 417.6291 790.2607 418.7008 787.4061 422.2192 787.3281 425.5764 783.6297 428.2018 783.8558 434.5488 789.0916 437.0259 790.0405 439.1102 786.2636 442.1475 786.8103 444.9566 791.2756 444.9511 792.7676 447.8719 788.7766 454.8587 782.845 460.9493 778.4695 462.9669 765.7318 462.6806 762.5617 464.8699 763.1404 466.9578 759.1178 470.2756 756.5297 475.4324 755.113 491.634 755.2897 496.6479 764.4476 511.9884 760.7751 514.6631 754.9921 505.1435 747.7281 502.456 743.0244 501.9304 739.47 499.3415 738.4961 486.0961 735.2524 481.5747 738.0152 477.3435 732.9217 468.5276 723.2827 461.2519 719.8243 448.161 717.0834 443.9507 711.941 441.4716 706.7605 437.3674 707.4352 435.9721 696.7864 430.5485 692.8475 427.6297 690.7029 429.6849 686.0021 428.8608 686.6126 425.3844 685.3281 422.0603 681.5601 419.1498 673.2985 417.8461 669.5583 414.985 669.277 410.2755 Z M 602.3656 502.1127 606.2525 496.5873 605.6422 489.8624 603.3609 486.3012 607.633 480.9865 610.9526 478.2645 616.6227 476.6319 618.5074 478.2965 620.3276 484.9316 622.2853 486.5914 621.1268 491.159 629.0887 493.8474 630.1591 497.4777 627.6991 504.6233 624.6761 503.9549 619.8209 509.0338 615.1137 509.2965 613.1453 511.4913 608.6909 511.9832 608.0645 504.7447 602.3656 502.1127 Z M 105.0517 113.7136 108.6946 113.8646 111.2738 112.0204 118.3156 110.2683 117.4947 115.7973 110.4639 117.2968 107.8139 116.9271 105.0517 113.7136 Z M 79.7322 100.4258 81.1494 99.3931 87.4189 99.477 90.2428 104.729 79.7322 100.4258 Z M 1 22.7744 1.1097 19.8849 6.0818 19.3855 11.9941 16.4818 18.3273 11.5063 20.1755 8.3596 20.3629 5.2191 22.4634 2.1353 25.2165 1.0001 39.1366 7.609 43.7056 11.2037 45.9866 15.5802 52.1454 19.2441 55.2216 22.996 67.8167 32.0517 64.6244 36.5918 51.5766 40.9051 46.9109 46.7507 45.4825 50.3641 42.0705 54.8854 38.8069 55.7177 36.5579 53.8321 29.7015 53.681 28.0921 58.8518 25.1709 58.0635 27.9047 54.3558 31.3944 52.5081 35.3042 44.3483 34.9034 41.9143 31.1293 37.5568 24.0402 32.1022 19.7429 29.7816 14.9605 28.4445 12.1945 31.3516 9.1119 32.203 2.0093 30.2122 3.1986 25.8104 1 22.7744 Z M 598.8005 744.7957 600.3514 742.4694 600.5255 737.7054 602.4236 733.8245 604.8674 732.7755 609.9379 734.6398 612.6911 738.1529 612.5989 744.8422 608.5391 748.2398 608.174 752.2313 604.7709 750.3276 598.8005 744.7957 Z M 591.6439 1088.3467 595.0593 1084.7039 595.747 1080.2848 600.3307 1082.2985 606.1341 1087.4001 603.7608 1088.0381 598.5533 1085.376 594.8688 1089.9999 591.6439 1088.3467 Z M 263.3155 111.0004 267.375 106.7725 270.7504 104.4584 275.92 109.0125 280.9679 109.6653 283.9782 109.0868 282.8533 113.8932 274.43 111.0153 270.492 111.8311 268.8194 113.6408 263.3155 111.0004 Z M 342.9157 807.8265 348.3862 800.3912 350.8572 795.9592 354.0506 797.9243 356.1475 801.3897 356.4933 805.0546 352.2357 808.9726 350.4476 811.7598 348.1085 809.8911 342.9157 807.8265 Z M 637.5586 574.2004 642.5314 572.7803 647.5974 574.047 645.9195 576.0738 643.3948 574.797 637.5586 574.2004 Z M 508.6855 838.8052 514.0076 838.289 523.6555 841.0548 523.103 847.6111 511.3787 841.0794 508.6855 838.8052 Z M 336.3753 1042.0612 339.0125 1035.5472 341.8433 1037.8031 340.0152 1045.1319 337.2302 1044.9962 336.3753 1042.0612 Z M 656.0499 383.7877 662.1224 379.1753 665.1622 378.1418 663.2638 384.3159 657.0844 385.2921 656.0499 383.7877 Z M 559.4782 990.0787 560.6031 986.0848 564.2764 983.5006 562.0931 978.6415 564.6366 977.0863 568.5156 979.9717 565.4277 986.2709 564.4892 989.8956 559.4782 990.0787 Z M 608.9666 570.2915 612.5872 567.2727 614.8086 570.5008 619.1783 572.6443 617.1327 575.0318 614.8868 572.7468 608.9666 570.2915 Z" id="06"/>
  </g>
</svg>
